<?xml version="1.0" encoding="utf-8"?>
<!DOCTYPE svg
  PUBLIC '-//W3C//DTD SVG 1.0//EN'
  'http://www.w3.org/TR/2001/REC-SVG-20010904/DTD/svg10.dtd'>
<svg fill-rule="evenodd" height="400" preserveAspectRatio="xMinYMin meet" version="1.0" viewBox="0 0 600 400" width="600" xmlns="http://www.w3.org/2000/svg" xmlns:xlink="http://www.w3.org/1999/xlink">
	<title>...</title>
	<desc>...</desc>
	<clipPath id="clip">
		<rect height="400" width="600" x="0" y="0"/>
	</clipPath>
	<g id="group" style="clip-path: url(#clip)" transform="scale(1,-1) translate(0,-400)">
		<g transform="">
			<polygon points="54.718912 312.090909, 82.912140 312.090909, 82.912140 317.000000, 54.718912 317.000000" style="stroke-width: 1; stroke-linecap: butt; stroke: rgb(85%,43%,57%); fill: rgb(85%,43%,57%);"/>
			<polygon points="54.718912 312.090909, 56.142812 312.090909, 56.142812 317.000000, 54.718912 317.000000" style="stroke-linecap: butt; stroke-width: 1; stroke: rgb(100%,0%,0%); fill: rgb(100%,0%,0%);"/>
			<polygon points="81.659108 312.090909, 82.912140 312.090909, 82.912140 317.000000, 81.659108 317.000000" style="stroke-width: 1; stroke-linecap: butt; stroke: rgb(100%,0%,0%); fill: rgb(100%,0%,0%);"/>
			<polygon points="101.251978 312.090909, 130.356502 312.090909, 130.356502 317.000000, 101.251978 317.000000" style="stroke-linecap: butt; stroke-width: 1; stroke: rgb(85%,43%,57%); fill: rgb(85%,43%,57%);"/>
			<polygon points="101.251978 312.090909, 102.505010 312.090909, 102.505010 317.000000, 101.251978 317.000000" style="stroke-width: 1; stroke-linecap: butt; stroke: rgb(100%,0%,0%); fill: rgb(100%,0%,0%);"/>
			<polygon points="129.103470 312.090909, 130.356502 312.090909, 130.356502 317.000000, 129.103470 317.000000" style="stroke-linecap: butt; stroke-width: 1; stroke: rgb(100%,0%,0%); fill: rgb(100%,0%,0%);"/>
			<polygon points="147.614176 312.090909, 176.946525 312.090909, 176.946525 317.000000, 147.614176 317.000000" style="stroke-width: 1; stroke-linecap: butt; stroke: rgb(85%,43%,57%); fill: rgb(85%,43%,57%);"/>
			<polygon points="147.614176 312.090909, 148.867208 312.090909, 148.867208 317.000000, 147.614176 317.000000" style="stroke-linecap: butt; stroke-width: 1; stroke: rgb(100%,0%,0%); fill: rgb(100%,0%,0%);"/>
			<polygon points="175.636536 312.090909, 176.946525 312.090909, 176.946525 317.000000, 175.636536 317.000000" style="stroke-width: 1; stroke-linecap: butt; stroke: rgb(100%,0%,0%); fill: rgb(100%,0%,0%);"/>
			<polygon points="194.830714 312.090909, 221.941778 312.090909, 221.941778 317.000000, 194.830714 317.000000" style="stroke-linecap: butt; stroke-width: 1; stroke: rgb(85%,43%,57%); fill: rgb(85%,43%,57%);"/>
			<polygon points="194.830714 312.090909, 196.539395 312.090909, 196.539395 317.000000, 194.830714 317.000000" style="stroke-width: 1; stroke-linecap: butt; stroke: rgb(100%,0%,0%); fill: rgb(100%,0%,0%);"/>
			<polygon points="220.631790 312.090909, 221.941778 312.090909, 221.941778 317.000000, 220.631790 317.000000" style="stroke-linecap: butt; stroke-width: 1; stroke: rgb(100%,0%,0%); fill: rgb(100%,0%,0%);"/>
			<polygon points="240.395528 312.090909, 267.449636 312.090909, 267.449636 317.000000, 240.395528 317.000000" style="stroke-width: 1; stroke-linecap: butt; stroke: rgb(85%,43%,57%); fill: rgb(85%,43%,57%);"/>
			<polygon points="240.395528 312.090909, 241.648560 312.090909, 241.648560 317.000000, 240.395528 317.000000" style="stroke-linecap: butt; stroke-width: 1; stroke: rgb(100%,0%,0%); fill: rgb(100%,0%,0%);"/>
			<polygon points="266.196604 312.090909, 267.449636 312.090909, 267.449636 317.000000, 266.196604 317.000000" style="stroke-width: 1; stroke-linecap: butt; stroke: rgb(100%,0%,0%); fill: rgb(100%,0%,0%);"/>
			<polygon points="285.903386 312.090909, 313.014450 312.090909, 313.014450 317.000000, 285.903386 317.000000" style="stroke-linecap: butt; stroke-width: 1; stroke: rgb(85%,43%,57%); fill: rgb(85%,43%,57%);"/>
			<polygon points="285.903386 312.090909, 287.156418 312.090909, 287.156418 317.000000, 285.903386 317.000000" style="stroke-width: 1; stroke-linecap: butt; stroke: rgb(100%,0%,0%); fill: rgb(100%,0%,0%);"/>
			<polygon points="311.761418 312.090909, 313.014450 312.090909, 313.014450 317.000000, 311.761418 317.000000" style="stroke-linecap: butt; stroke-width: 1; stroke: rgb(100%,0%,0%); fill: rgb(100%,0%,0%);"/>
			<polygon points="330.727771 312.090909, 359.148824 312.090909, 359.148824 317.000000, 330.727771 317.000000" style="stroke-width: 1; stroke-linecap: butt; stroke: rgb(85%,43%,57%); fill: rgb(85%,43%,57%);"/>
			<polygon points="330.727771 312.090909, 331.980804 312.090909, 331.980804 317.000000, 330.727771 317.000000" style="stroke-linecap: butt; stroke-width: 1; stroke: rgb(100%,0%,0%); fill: rgb(100%,0%,0%);"/>
			<polygon points="357.895792 312.090909, 359.148824 312.090909, 359.148824 317.000000, 357.895792 317.000000" style="stroke-width: 1; stroke-linecap: butt; stroke: rgb(100%,0%,0%); fill: rgb(100%,0%,0%);"/>
			<polygon points="378.684738 312.090909, 406.023626 312.090909, 406.023626 317.000000, 378.684738 317.000000" style="stroke-linecap: butt; stroke-width: 1; stroke: rgb(85%,43%,57%); fill: rgb(85%,43%,57%);"/>
			<polygon points="378.684738 312.090909, 380.051682 312.090909, 380.051682 317.000000, 378.684738 317.000000" style="stroke-width: 1; stroke-linecap: butt; stroke: rgb(100%,0%,0%); fill: rgb(100%,0%,0%);"/>
			<polygon points="404.770594 312.090909, 406.023626 312.090909, 406.023626 317.000000, 404.770594 317.000000" style="stroke-linecap: butt; stroke-width: 1; stroke: rgb(100%,0%,0%); fill: rgb(100%,0%,0%);"/>
			<polygon points="424.363464 312.090909, 451.417572 312.090909, 451.417572 317.000000, 424.363464 317.000000" style="stroke-width: 1; stroke-linecap: butt; stroke: rgb(85%,43%,57%); fill: rgb(85%,43%,57%);"/>
			<polygon points="424.363464 312.090909, 425.787364 312.090909, 425.787364 317.000000, 424.363464 317.000000" style="stroke-linecap: butt; stroke-width: 1; stroke: rgb(100%,0%,0%); fill: rgb(100%,0%,0%);"/>
			<polygon points="450.164540 312.090909, 451.417572 312.090909, 451.417572 317.000000, 450.164540 317.000000" style="stroke-width: 1; stroke-linecap: butt; stroke: rgb(100%,0%,0%); fill: rgb(100%,0%,0%);"/>
			<polygon points="469.814366 312.090909, 497.153254 312.090909, 497.153254 317.000000, 469.814366 317.000000" style="stroke-linecap: butt; stroke-width: 1; stroke: rgb(85%,43%,57%); fill: rgb(85%,43%,57%);"/>
			<polygon points="469.814366 312.090909, 471.067398 312.090909, 471.067398 317.000000, 469.814366 317.000000" style="stroke-width: 1; stroke-linecap: butt; stroke: rgb(100%,0%,0%); fill: rgb(100%,0%,0%);"/>
			<polygon points="495.786309 312.090909, 497.153254 312.090909, 497.153254 317.000000, 495.786309 317.000000" style="stroke-linecap: butt; stroke-width: 1; stroke: rgb(100%,0%,0%); fill: rgb(100%,0%,0%);"/>
			<polygon points="514.980487 312.090909, 542.148508 312.090909, 542.148508 317.000000, 514.980487 317.000000" style="stroke-width: 1; stroke-linecap: butt; stroke: rgb(85%,43%,57%); fill: rgb(85%,43%,57%);"/>
			<polygon points="514.980487 312.090909, 516.233520 312.090909, 516.233520 317.000000, 514.980487 317.000000" style="stroke-linecap: butt; stroke-width: 1; stroke: rgb(100%,0%,0%); fill: rgb(100%,0%,0%);"/>
			<polygon points="540.895475 312.090909, 542.148508 312.090909, 542.148508 317.000000, 540.895475 317.000000" style="stroke-width: 1; stroke-linecap: butt; stroke: rgb(100%,0%,0%); fill: rgb(100%,0%,0%);"/>
			<polygon points="557.925324 312.090909, 570.000000 312.090909, 570.000000 317.000000, 557.925324 317.000000" style="stroke-linecap: butt; stroke-width: 1; stroke: rgb(85%,43%,57%); fill: rgb(85%,43%,57%);"/>
			<polygon points="30.000000 132.090909, 47.428541 132.090909, 47.428541 137.000000, 30.000000 137.000000" style="stroke-width: 1; stroke-linecap: butt; stroke: rgb(85%,43%,57%); fill: rgb(85%,43%,57%);"/>
			<polygon points="557.925324 312.090909, 559.178357 312.090909, 559.178357 317.000000, 557.925324 317.000000" style="stroke-linecap: butt; stroke-width: 1; stroke: rgb(100%,0%,0%); fill: rgb(100%,0%,0%);"/>
			<polygon points="46.175509 132.090909, 47.428541 132.090909, 47.428541 137.000000, 46.175509 137.000000" style="stroke-width: 1; stroke-linecap: butt; stroke: rgb(100%,0%,0%); fill: rgb(100%,0%,0%);"/>
			<polygon points="65.027951 132.090909, 92.082059 132.090909, 92.082059 137.000000, 65.027951 137.000000" style="stroke-linecap: butt; stroke-width: 1; stroke: rgb(85%,43%,57%); fill: rgb(85%,43%,57%);"/>
			<polygon points="65.027951 132.090909, 66.679675 132.090909, 66.679675 137.000000, 65.027951 137.000000" style="stroke-width: 1; stroke-linecap: butt; stroke: rgb(100%,0%,0%); fill: rgb(100%,0%,0%);"/>
			<polygon points="90.544246 132.090909, 92.082059 132.090909, 92.082059 137.000000, 90.544246 137.000000" style="stroke-linecap: butt; stroke-width: 1; stroke: rgb(100%,0%,0%); fill: rgb(100%,0%,0%);"/>
			<polygon points="108.713216 132.090909, 135.938192 132.090909, 135.938192 137.000000, 108.713216 137.000000" style="stroke-width: 1; stroke-linecap: butt; stroke: rgb(85%,43%,57%); fill: rgb(85%,43%,57%);"/>
			<polygon points="108.713216 132.090909, 110.251028 132.090909, 110.251028 137.000000, 108.713216 137.000000" style="stroke-linecap: butt; stroke-width: 1; stroke: rgb(100%,0%,0%); fill: rgb(100%,0%,0%);"/>
			<polygon points="134.286468 132.090909, 135.938192 132.090909, 135.938192 137.000000, 134.286468 137.000000" style="stroke-width: 1; stroke-linecap: butt; stroke: rgb(100%,0%,0%); fill: rgb(100%,0%,0%);"/>
			<polygon points="153.537602 132.090909, 181.616918 132.090909, 181.616918 137.000000, 153.537602 137.000000" style="stroke-linecap: butt; stroke-width: 1; stroke: rgb(85%,43%,57%); fill: rgb(85%,43%,57%);"/>
			<polygon points="153.537602 132.090909, 154.790634 132.090909, 154.790634 137.000000, 153.537602 137.000000" style="stroke-width: 1; stroke-linecap: butt; stroke: rgb(100%,0%,0%); fill: rgb(100%,0%,0%);"/>
			<polygon points="180.306930 132.090909, 181.616918 132.090909, 181.616918 137.000000, 180.306930 137.000000" style="stroke-linecap: butt; stroke-width: 1; stroke: rgb(100%,0%,0%); fill: rgb(100%,0%,0%);"/>
			<polygon points="200.013712 132.090909, 227.067820 132.090909, 227.067820 137.000000, 200.013712 137.000000" style="stroke-width: 1; stroke-linecap: butt; stroke: rgb(85%,43%,57%); fill: rgb(85%,43%,57%);"/>
			<polygon points="200.013712 132.090909, 201.323700 132.090909, 201.323700 137.000000, 200.013712 137.000000" style="stroke-linecap: butt; stroke-width: 1; stroke: rgb(100%,0%,0%); fill: rgb(100%,0%,0%);"/>
			<polygon points="225.814787 132.090909, 227.067820 132.090909, 227.067820 137.000000, 225.814787 137.000000" style="stroke-width: 1; stroke-linecap: butt; stroke: rgb(100%,0%,0%); fill: rgb(100%,0%,0%);"/>
			<polygon points="246.034174 132.090909, 273.088282 132.090909, 273.088282 137.000000, 246.034174 137.000000" style="stroke-linecap: butt; stroke-width: 1; stroke: rgb(85%,43%,57%); fill: rgb(85%,43%,57%);"/>
			<polygon points="246.034174 132.090909, 247.287206 132.090909, 247.287206 137.000000, 246.034174 137.000000" style="stroke-width: 1; stroke-linecap: butt; stroke: rgb(100%,0%,0%); fill: rgb(100%,0%,0%);"/>
			<polygon points="271.664381 132.090909, 273.088282 132.090909, 273.088282 137.000000, 271.664381 137.000000" style="stroke-linecap: butt; stroke-width: 1; stroke: rgb(100%,0%,0%); fill: rgb(100%,0%,0%);"/>
			<polygon points="291.655943 132.090909, 319.564392 132.090909, 319.564392 137.000000, 291.655943 137.000000" style="stroke-width: 1; stroke-linecap: butt; stroke: rgb(85%,43%,57%); fill: rgb(85%,43%,57%);"/>
			<polygon points="291.655943 132.090909, 292.908976 132.090909, 292.908976 137.000000, 291.655943 137.000000" style="stroke-linecap: butt; stroke-width: 1; stroke: rgb(100%,0%,0%); fill: rgb(100%,0%,0%);"/>
			<polygon points="318.311360 132.090909, 319.564392 132.090909, 319.564392 137.000000, 318.311360 137.000000" style="stroke-width: 1; stroke-linecap: butt; stroke: rgb(100%,0%,0%); fill: rgb(100%,0%,0%);"/>
			<polygon points="336.879021 132.090909, 365.812678 132.090909, 365.812678 137.000000, 336.879021 137.000000" style="stroke-linecap: butt; stroke-width: 1; stroke: rgb(85%,43%,57%); fill: rgb(85%,43%,57%);"/>
			<polygon points="336.879021 132.090909, 338.245966 132.090909, 338.245966 137.000000, 336.879021 137.000000" style="stroke-width: 1; stroke-linecap: butt; stroke: rgb(100%,0%,0%); fill: rgb(100%,0%,0%);"/>
			<polygon points="364.445734 132.090909, 365.812678 132.090909, 365.812678 137.000000, 364.445734 137.000000" style="stroke-linecap: butt; stroke-width: 1; stroke: rgb(100%,0%,0%); fill: rgb(100%,0%,0%);"/>
			<polygon points="383.753823 132.090909, 410.807932 132.090909, 410.807932 137.000000, 383.753823 137.000000" style="stroke-width: 1; stroke-linecap: butt; stroke: rgb(85%,43%,57%); fill: rgb(85%,43%,57%);"/>
			<polygon points="383.753823 132.090909, 385.405548 132.090909, 385.405548 137.000000, 383.753823 137.000000" style="stroke-linecap: butt; stroke-width: 1; stroke: rgb(100%,0%,0%); fill: rgb(100%,0%,0%);"/>
			<polygon points="409.270119 132.090909, 410.807932 132.090909, 410.807932 137.000000, 409.270119 137.000000" style="stroke-width: 1; stroke-linecap: butt; stroke: rgb(100%,0%,0%); fill: rgb(100%,0%,0%);"/>
			<polygon points="429.147769 132.090909, 456.543614 132.090909, 456.543614 137.000000, 429.147769 137.000000" style="stroke-linecap: butt; stroke-width: 1; stroke: rgb(85%,43%,57%); fill: rgb(85%,43%,57%);"/>
			<polygon points="429.147769 132.090909, 430.400802 132.090909, 430.400802 137.000000, 429.147769 137.000000" style="stroke-width: 1; stroke-linecap: butt; stroke: rgb(100%,0%,0%); fill: rgb(100%,0%,0%);"/>
			<polygon points="455.176669 132.090909, 456.543614 132.090909, 456.543614 137.000000, 455.176669 137.000000" style="stroke-linecap: butt; stroke-width: 1; stroke: rgb(100%,0%,0%); fill: rgb(100%,0%,0%);"/>
			<polygon points="476.079527 132.090909, 503.475372 132.090909, 503.475372 137.000000, 476.079527 137.000000" style="stroke-width: 1; stroke-linecap: butt; stroke: rgb(85%,43%,57%); fill: rgb(85%,43%,57%);"/>
			<polygon points="476.079527 132.090909, 477.332560 132.090909, 477.332560 137.000000, 476.079527 137.000000" style="stroke-linecap: butt; stroke-width: 1; stroke: rgb(100%,0%,0%); fill: rgb(100%,0%,0%);"/>
			<polygon points="501.766691 132.090909, 503.475372 132.090909, 503.475372 137.000000, 501.766691 137.000000" style="stroke-width: 1; stroke-linecap: butt; stroke: rgb(100%,0%,0%); fill: rgb(100%,0%,0%);"/>
			<polygon points="519.992617 132.090909, 547.844109 132.090909, 547.844109 137.000000, 519.992617 137.000000" style="stroke-linecap: butt; stroke-width: 1; stroke: rgb(85%,43%,57%); fill: rgb(85%,43%,57%);"/>
			<polygon points="519.992617 132.090909, 521.473473 132.090909, 521.473473 137.000000, 519.992617 137.000000" style="stroke-width: 1; stroke-linecap: butt; stroke: rgb(100%,0%,0%); fill: rgb(100%,0%,0%);"/>
			<polygon points="546.306297 132.090909, 547.844109 132.090909, 547.844109 137.000000, 546.306297 137.000000" style="stroke-linecap: butt; stroke-width: 1; stroke: rgb(100%,0%,0%); fill: rgb(100%,0%,0%);"/>
			<polygon points="32.164329 366.090909, 59.731041 366.090909, 59.731041 371.000000, 32.164329 371.000000" style="stroke-width: 1; stroke-linecap: butt; stroke: rgb(85%,43%,57%); fill: rgb(85%,43%,57%);"/>
			<polygon points="32.164329 366.090909, 33.645185 366.090909, 33.645185 371.000000, 32.164329 371.000000" style="stroke-linecap: butt; stroke-width: 1; stroke: rgb(100%,0%,0%); fill: rgb(100%,0%,0%);"/>
			<polygon points="58.478009 366.090909, 59.731041 366.090909, 59.731041 371.000000, 58.478009 371.000000" style="stroke-width: 1; stroke-linecap: butt; stroke: rgb(100%,0%,0%); fill: rgb(100%,0%,0%);"/>
			<polygon points="78.925219 366.090909, 106.833667 366.090909, 106.833667 371.000000, 78.925219 371.000000" style="stroke-linecap: butt; stroke-width: 1; stroke: rgb(85%,43%,57%); fill: rgb(85%,43%,57%);"/>
			<polygon points="78.925219 366.090909, 80.178251 366.090909, 80.178251 371.000000, 78.925219 371.000000" style="stroke-width: 1; stroke-linecap: butt; stroke: rgb(100%,0%,0%); fill: rgb(100%,0%,0%);"/>
			<polygon points="105.580635 366.090909, 106.833667 366.090909, 106.833667 371.000000, 105.580635 371.000000" style="stroke-linecap: butt; stroke-width: 1; stroke: rgb(100%,0%,0%); fill: rgb(100%,0%,0%);"/>
			<polygon points="126.084801 366.090909, 153.309777 366.090909, 153.309777 371.000000, 126.084801 371.000000" style="stroke-width: 1; stroke-linecap: butt; stroke: rgb(85%,43%,57%); fill: rgb(85%,43%,57%);"/>
			<polygon points="126.084801 366.090909, 127.337834 366.090909, 127.337834 371.000000, 126.084801 371.000000" style="stroke-linecap: butt; stroke-width: 1; stroke: rgb(100%,0%,0%); fill: rgb(100%,0%,0%);"/>
			<polygon points="152.056745 366.090909, 153.309777 366.090909, 153.309777 371.000000, 152.056745 371.000000" style="stroke-width: 1; stroke-linecap: butt; stroke: rgb(100%,0%,0%); fill: rgb(100%,0%,0%);"/>
			<polygon points="172.845691 366.090909, 200.697184 366.090909, 200.697184 371.000000, 172.845691 371.000000" style="stroke-linecap: butt; stroke-width: 1; stroke: rgb(85%,43%,57%); fill: rgb(85%,43%,57%);"/>
			<polygon points="172.845691 366.090909, 174.155680 366.090909, 174.155680 371.000000, 172.845691 371.000000" style="stroke-width: 1; stroke-linecap: butt; stroke: rgb(100%,0%,0%); fill: rgb(100%,0%,0%);"/>
			<polygon points="199.444151 366.090909, 200.697184 366.090909, 200.697184 371.000000, 199.444151 371.000000" style="stroke-linecap: butt; stroke-width: 1; stroke: rgb(100%,0%,0%); fill: rgb(100%,0%,0%);"/>
			<polygon points="217.442253 366.090909, 245.863306 366.090909, 245.863306 371.000000, 217.442253 371.000000" style="stroke-width: 1; stroke-linecap: butt; stroke: rgb(85%,43%,57%); fill: rgb(85%,43%,57%);"/>
			<polygon points="217.442253 366.090909, 218.695285 366.090909, 218.695285 371.000000, 217.442253 371.000000" style="stroke-linecap: butt; stroke-width: 1; stroke: rgb(100%,0%,0%); fill: rgb(100%,0%,0%);"/>
			<polygon points="244.610273 366.090909, 245.863306 366.090909, 245.863306 371.000000, 244.610273 371.000000" style="stroke-width: 1; stroke-linecap: butt; stroke: rgb(100%,0%,0%); fill: rgb(100%,0%,0%);"/>
			<polygon points="262.038814 366.090909, 291.314207 366.090909, 291.314207 371.000000, 262.038814 371.000000" style="stroke-linecap: butt; stroke-width: 1; stroke: rgb(85%,43%,57%); fill: rgb(85%,43%,57%);"/>
			<polygon points="262.038814 366.090909, 263.291847 366.090909, 263.291847 371.000000, 262.038814 371.000000" style="stroke-width: 1; stroke-linecap: butt; stroke: rgb(100%,0%,0%); fill: rgb(100%,0%,0%);"/>
			<polygon points="290.061175 366.090909, 291.314207 366.090909, 291.314207 371.000000, 290.061175 371.000000" style="stroke-linecap: butt; stroke-width: 1; stroke: rgb(100%,0%,0%); fill: rgb(100%,0%,0%);"/>
			<polygon points="307.432760 366.090909, 335.625989 366.090909, 335.625989 371.000000, 307.432760 371.000000" style="stroke-width: 1; stroke-linecap: butt; stroke: rgb(85%,43%,57%); fill: rgb(85%,43%,57%);"/>
			<polygon points="307.432760 366.090909, 308.685793 366.090909, 308.685793 371.000000, 307.432760 371.000000" style="stroke-linecap: butt; stroke-width: 1; stroke: rgb(100%,0%,0%); fill: rgb(100%,0%,0%);"/>
			<polygon points="334.316000 366.090909, 335.625989 366.090909, 335.625989 371.000000, 334.316000 371.000000" style="stroke-width: 1; stroke-linecap: butt; stroke: rgb(100%,0%,0%); fill: rgb(100%,0%,0%);"/>
			<polygon points="355.104947 366.090909, 382.557747 366.090909, 382.557747 371.000000, 355.104947 371.000000" style="stroke-linecap: butt; stroke-width: 1; stroke: rgb(85%,43%,57%); fill: rgb(85%,43%,57%);"/>
			<polygon points="355.104947 366.090909, 356.756671 366.090909, 356.756671 371.000000, 355.104947 371.000000" style="stroke-width: 1; stroke-linecap: butt; stroke: rgb(100%,0%,0%); fill: rgb(100%,0%,0%);"/>
			<polygon points="381.190803 366.090909, 382.557747 366.090909, 382.557747 371.000000, 381.190803 371.000000" style="stroke-linecap: butt; stroke-width: 1; stroke: rgb(100%,0%,0%); fill: rgb(100%,0%,0%);"/>
			<polygon points="401.524101 366.090909, 429.147769 366.090909, 429.147769 371.000000, 401.524101 371.000000" style="stroke-width: 1; stroke-linecap: butt; stroke: rgb(85%,43%,57%); fill: rgb(85%,43%,57%);"/>
			<polygon points="401.524101 366.090909, 402.777133 366.090909, 402.777133 371.000000, 401.524101 371.000000" style="stroke-linecap: butt; stroke-width: 1; stroke: rgb(100%,0%,0%); fill: rgb(100%,0%,0%);"/>
			<polygon points="427.894737 366.090909, 429.147769 366.090909, 429.147769 371.000000, 427.894737 371.000000" style="stroke-width: 1; stroke-linecap: butt; stroke: rgb(100%,0%,0%); fill: rgb(100%,0%,0%);"/>
			<polygon points="447.088915 366.090909, 474.143023 366.090909, 474.143023 371.000000, 447.088915 371.000000" style="stroke-linecap: butt; stroke-width: 1; stroke: rgb(85%,43%,57%); fill: rgb(85%,43%,57%);"/>
			<polygon points="447.088915 366.090909, 448.341947 366.090909, 448.341947 371.000000, 447.088915 371.000000" style="stroke-width: 1; stroke-linecap: butt; stroke: rgb(100%,0%,0%); fill: rgb(100%,0%,0%);"/>
			<polygon points="472.889991 366.090909, 474.143023 366.090909, 474.143023 371.000000, 472.889991 371.000000" style="stroke-linecap: butt; stroke-width: 1; stroke: rgb(100%,0%,0%); fill: rgb(100%,0%,0%);"/>
			<polygon points="491.343740 366.090909, 518.511760 366.090909, 518.511760 371.000000, 491.343740 371.000000" style="stroke-width: 1; stroke-linecap: butt; stroke: rgb(85%,43%,57%); fill: rgb(85%,43%,57%);"/>
			<polygon points="491.343740 366.090909, 492.710685 366.090909, 492.710685 371.000000, 491.343740 371.000000" style="stroke-linecap: butt; stroke-width: 1; stroke: rgb(100%,0%,0%); fill: rgb(100%,0%,0%);"/>
			<polygon points="517.258728 366.090909, 518.511760 366.090909, 518.511760 371.000000, 517.258728 371.000000" style="stroke-width: 1; stroke-linecap: butt; stroke: rgb(100%,0%,0%); fill: rgb(100%,0%,0%);"/>
			<polygon points="536.395950 366.090909, 563.507014 366.090909, 563.507014 371.000000, 536.395950 371.000000" style="stroke-linecap: butt; stroke-width: 1; stroke: rgb(85%,43%,57%); fill: rgb(85%,43%,57%);"/>
			<polygon points="536.395950 366.090909, 537.705938 366.090909, 537.705938 371.000000, 536.395950 371.000000" style="stroke-width: 1; stroke-linecap: butt; stroke: rgb(100%,0%,0%); fill: rgb(100%,0%,0%);"/>
			<polygon points="562.253982 366.090909, 563.507014 366.090909, 563.507014 371.000000, 562.253982 371.000000" style="stroke-linecap: butt; stroke-width: 1; stroke: rgb(100%,0%,0%); fill: rgb(100%,0%,0%);"/>
			<polygon points="40.764687 186.090909, 70.097036 186.090909, 70.097036 191.000000, 40.764687 191.000000" style="stroke-width: 1; stroke-linecap: butt; stroke: rgb(85%,43%,57%); fill: rgb(85%,43%,57%);"/>
			<polygon points="40.764687 186.090909, 42.074676 186.090909, 42.074676 191.000000, 40.764687 191.000000" style="stroke-linecap: butt; stroke-width: 1; stroke: rgb(100%,0%,0%); fill: rgb(100%,0%,0%);"/>
			<polygon points="68.787048 186.090909, 70.097036 186.090909, 70.097036 191.000000, 68.787048 191.000000" style="stroke-width: 1; stroke-linecap: butt; stroke: rgb(100%,0%,0%); fill: rgb(100%,0%,0%);"/>
			<polygon points="87.411665 186.090909, 114.579686 186.090909, 114.579686 191.000000, 87.411665 191.000000" style="stroke-linecap: butt; stroke-width: 1; stroke: rgb(85%,43%,57%); fill: rgb(85%,43%,57%);"/>
			<polygon points="87.411665 186.090909, 88.664698 186.090909, 88.664698 191.000000, 87.411665 191.000000" style="stroke-width: 1; stroke-linecap: butt; stroke: rgb(100%,0%,0%); fill: rgb(100%,0%,0%);"/>
			<polygon points="113.326653 186.090909, 114.579686 186.090909, 114.579686 191.000000, 113.326653 191.000000" style="stroke-linecap: butt; stroke-width: 1; stroke: rgb(100%,0%,0%); fill: rgb(100%,0%,0%);"/>
			<polygon points="130.356502 186.090909, 157.809303 186.090909, 157.809303 191.000000, 130.356502 191.000000" style="stroke-width: 1; stroke-linecap: butt; stroke: rgb(85%,43%,57%); fill: rgb(85%,43%,57%);"/>
			<polygon points="130.356502 186.090909, 131.609535 186.090909, 131.609535 191.000000, 130.356502 191.000000" style="stroke-linecap: butt; stroke-width: 1; stroke: rgb(100%,0%,0%); fill: rgb(100%,0%,0%);"/>
			<polygon points="156.556270 186.090909, 157.809303 186.090909, 157.809303 191.000000, 156.556270 191.000000" style="stroke-width: 1; stroke-linecap: butt; stroke: rgb(100%,0%,0%); fill: rgb(100%,0%,0%);"/>
			<polygon points="175.921316 186.090909, 204.228457 186.090909, 204.228457 191.000000, 175.921316 191.000000" style="stroke-linecap: butt; stroke-width: 1; stroke: rgb(85%,43%,57%); fill: rgb(85%,43%,57%);"/>
			<polygon points="175.921316 186.090909, 177.288261 186.090909, 177.288261 191.000000, 175.921316 191.000000" style="stroke-width: 1; stroke-linecap: butt; stroke: rgb(100%,0%,0%); fill: rgb(100%,0%,0%);"/>
			<polygon points="202.975425 186.090909, 204.228457 186.090909, 204.228457 191.000000, 202.975425 191.000000" style="stroke-linecap: butt; stroke-width: 1; stroke: rgb(100%,0%,0%); fill: rgb(100%,0%,0%);"/>
			<polygon points="221.315262 186.090909, 249.736315 186.090909, 249.736315 191.000000, 221.315262 191.000000" style="stroke-width: 1; stroke-linecap: butt; stroke: rgb(85%,43%,57%); fill: rgb(85%,43%,57%);"/>
			<polygon points="221.315262 186.090909, 222.853075 186.090909, 222.853075 191.000000, 221.315262 191.000000" style="stroke-linecap: butt; stroke-width: 1; stroke: rgb(100%,0%,0%); fill: rgb(100%,0%,0%);"/>
			<polygon points="248.426326 186.090909, 249.736315 186.090909, 249.736315 191.000000, 248.426326 191.000000" style="stroke-width: 1; stroke-linecap: butt; stroke: rgb(100%,0%,0%); fill: rgb(100%,0%,0%);"/>
			<polygon points="268.417888 186.090909, 296.155469 186.090909, 296.155469 191.000000, 268.417888 191.000000" style="stroke-linecap: butt; stroke-width: 1; stroke: rgb(85%,43%,57%); fill: rgb(85%,43%,57%);"/>
			<polygon points="268.417888 186.090909, 269.670921 186.090909, 269.670921 191.000000, 268.417888 191.000000" style="stroke-width: 1; stroke-linecap: butt; stroke: rgb(100%,0%,0%); fill: rgb(100%,0%,0%);"/>
			<polygon points="294.731568 186.090909, 296.155469 186.090909, 296.155469 191.000000, 294.731568 191.000000" style="stroke-linecap: butt; stroke-width: 1; stroke: rgb(100%,0%,0%); fill: rgb(100%,0%,0%);"/>
			<polygon points="315.235735 186.090909, 342.745491 186.090909, 342.745491 191.000000, 315.235735 191.000000" style="stroke-width: 1; stroke-linecap: butt; stroke: rgb(85%,43%,57%); fill: rgb(85%,43%,57%);"/>
			<polygon points="315.235735 186.090909, 316.488767 186.090909, 316.488767 191.000000, 315.235735 191.000000" style="stroke-linecap: butt; stroke-width: 1; stroke: rgb(100%,0%,0%); fill: rgb(100%,0%,0%);"/>
			<polygon points="341.435503 186.090909, 342.745491 186.090909, 342.745491 191.000000, 341.435503 191.000000" style="stroke-width: 1; stroke-linecap: butt; stroke: rgb(100%,0%,0%); fill: rgb(100%,0%,0%);"/>
			<polygon points="360.003164 186.090909, 388.025525 186.090909, 388.025525 191.000000, 360.003164 191.000000" style="stroke-linecap: butt; stroke-width: 1; stroke: rgb(85%,43%,57%); fill: rgb(85%,43%,57%);"/>
			<polygon points="360.003164 186.090909, 361.256197 186.090909, 361.256197 191.000000, 360.003164 191.000000" style="stroke-width: 1; stroke-linecap: butt; stroke: rgb(100%,0%,0%); fill: rgb(100%,0%,0%);"/>
			<polygon points="386.544668 186.090909, 388.025525 186.090909, 388.025525 191.000000, 386.544668 191.000000" style="stroke-linecap: butt; stroke-width: 1; stroke: rgb(100%,0%,0%); fill: rgb(100%,0%,0%);"/>
			<polygon points="406.650142 186.090909, 434.102943 186.090909, 434.102943 191.000000, 406.650142 191.000000" style="stroke-width: 1; stroke-linecap: butt; stroke: rgb(85%,43%,57%); fill: rgb(85%,43%,57%);"/>
			<polygon points="406.650142 186.090909, 408.074043 186.090909, 408.074043 191.000000, 406.650142 191.000000" style="stroke-linecap: butt; stroke-width: 1; stroke: rgb(100%,0%,0%); fill: rgb(100%,0%,0%);"/>
			<polygon points="432.792954 186.090909, 434.102943 186.090909, 434.102943 191.000000, 432.792954 191.000000" style="stroke-width: 1; stroke-linecap: butt; stroke: rgb(100%,0%,0%); fill: rgb(100%,0%,0%);"/>
			<polygon points="452.044088 186.090909, 479.667757 186.090909, 479.667757 191.000000, 452.044088 191.000000" style="stroke-linecap: butt; stroke-width: 1; stroke: rgb(85%,43%,57%); fill: rgb(85%,43%,57%);"/>
			<polygon points="452.044088 186.090909, 453.297121 186.090909, 453.297121 191.000000, 452.044088 191.000000" style="stroke-width: 1; stroke-linecap: butt; stroke: rgb(100%,0%,0%); fill: rgb(100%,0%,0%);"/>
			<polygon points="478.414724 186.090909, 479.667757 186.090909, 479.667757 191.000000, 478.414724 191.000000" style="stroke-linecap: butt; stroke-width: 1; stroke: rgb(100%,0%,0%); fill: rgb(100%,0%,0%);"/>
			<polygon points="498.861934 186.090909, 526.029955 186.090909, 526.029955 191.000000, 498.861934 191.000000" style="stroke-width: 1; stroke-linecap: butt; stroke: rgb(85%,43%,57%); fill: rgb(85%,43%,57%);"/>
			<polygon points="498.861934 186.090909, 500.342791 186.090909, 500.342791 191.000000, 498.861934 191.000000" style="stroke-linecap: butt; stroke-width: 1; stroke: rgb(100%,0%,0%); fill: rgb(100%,0%,0%);"/>
			<polygon points="524.776922 186.090909, 526.029955 186.090909, 526.029955 191.000000, 524.776922 191.000000" style="stroke-width: 1; stroke-linecap: butt; stroke: rgb(100%,0%,0%); fill: rgb(100%,0%,0%);"/>
			<polygon points="539.984179 186.090909, 567.493935 186.090909, 567.493935 191.000000, 539.984179 191.000000" style="stroke-linecap: butt; stroke-width: 1; stroke: rgb(85%,43%,57%); fill: rgb(85%,43%,57%);"/>
			<polygon points="539.984179 186.090909, 541.294167 186.090909, 541.294167 191.000000, 539.984179 191.000000" style="stroke-width: 1; stroke-linecap: butt; stroke: rgb(100%,0%,0%); fill: rgb(100%,0%,0%);"/>
			<polygon points="566.240903 186.090909, 567.493935 186.090909, 567.493935 191.000000, 566.240903 191.000000" style="stroke-linecap: butt; stroke-width: 1; stroke: rgb(100%,0%,0%); fill: rgb(100%,0%,0%);"/>
			<path d="M 30.000000,260.545455 L 570.000000,260.545455 Z" style="stroke-width: 1; stroke-linecap: butt; stroke: rgb(0%,0%,0%);"/>
			<path d="M 30.000000,258.090909 L 30.000000,263.000000 Z" style="stroke-linecap: butt; stroke-width: 1; stroke: rgb(0%,0%,0%);"/>
			<path d="M 569.886088,78.090909 L 569.886088,83.000000 Z" style="stroke-width: 1; stroke-linecap: butt; stroke: rgb(0%,0%,0%);"/>
			<path d="M 30.000000,80.545455 L 569.886088,80.545455 Z" style="stroke-linecap: butt; stroke-width: 1; stroke: rgb(0%,0%,0%);"/>
			<path d="M 30.000000,78.090909 L 30.000000,83.000000 Z" style="stroke-width: 1; stroke-linecap: butt; stroke: rgb(0%,0%,0%);"/>
			<path d="M 86.956017,260.545455 L 86.956017,261.772727 Z" style="stroke-linecap: butt; stroke-width: 1; stroke: rgb(0%,0%,0%);"/>
			<path d="M 143.912035,260.545455 L 143.912035,261.772727 Z" style="stroke-width: 1; stroke-linecap: butt; stroke: rgb(0%,0%,0%);"/>
			<path d="M 200.868052,260.545455 L 200.868052,261.772727 Z" style="stroke-linecap: butt; stroke-width: 1; stroke: rgb(0%,0%,0%);"/>
			<path d="M 257.824069,260.545455 L 257.824069,261.772727 Z" style="stroke-width: 1; stroke-linecap: butt; stroke: rgb(0%,0%,0%);"/>
			<path d="M 314.780086,260.545455 L 314.780086,261.772727 Z" style="stroke-linecap: butt; stroke-width: 1; stroke: rgb(0%,0%,0%);"/>
			<path d="M 371.736104,260.545455 L 371.736104,261.772727 Z" style="stroke-width: 1; stroke-linecap: butt; stroke: rgb(0%,0%,0%);"/>
			<path d="M 428.692121,260.545455 L 428.692121,261.772727 Z" style="stroke-linecap: butt; stroke-width: 1; stroke: rgb(0%,0%,0%);"/>
			<path d="M 485.648138,260.545455 L 485.648138,261.772727 Z" style="stroke-width: 1; stroke-linecap: butt; stroke: rgb(0%,0%,0%);"/>
			<path d="M 542.604156,260.545455 L 542.604156,261.772727 Z" style="stroke-linecap: butt; stroke-width: 1; stroke: rgb(0%,0%,0%);"/>
			<path d="M 59.560173,80.545455 L 59.560173,81.772727 Z" style="stroke-width: 1; stroke-linecap: butt; stroke: rgb(0%,0%,0%);"/>
			<path d="M 116.516190,80.545455 L 116.516190,81.772727 Z" style="stroke-linecap: butt; stroke-width: 1; stroke: rgb(0%,0%,0%);"/>
			<path d="M 173.472208,80.545455 L 173.472208,81.772727 Z" style="stroke-width: 1; stroke-linecap: butt; stroke: rgb(0%,0%,0%);"/>
			<path d="M 230.428225,80.545455 L 230.428225,81.772727 Z" style="stroke-linecap: butt; stroke-width: 1; stroke: rgb(0%,0%,0%);"/>
			<path d="M 287.384242,80.545455 L 287.384242,81.772727 Z" style="stroke-width: 1; stroke-linecap: butt; stroke: rgb(0%,0%,0%);"/>
			<path d="M 344.340259,80.545455 L 344.340259,81.772727 Z" style="stroke-linecap: butt; stroke-width: 1; stroke: rgb(0%,0%,0%);"/>
			<path d="M 401.296277,80.545455 L 401.296277,81.772727 Z" style="stroke-width: 1; stroke-linecap: butt; stroke: rgb(0%,0%,0%);"/>
			<path d="M 458.252294,80.545455 L 458.252294,81.772727 Z" style="stroke-linecap: butt; stroke-width: 1; stroke: rgb(0%,0%,0%);"/>
			<path d="M 515.208311,80.545455 L 515.208311,81.772727 Z" style="stroke-width: 1; stroke-linecap: butt; stroke: rgb(0%,0%,0%);"/>
			<path d="M 59.560173,80.545455 L 59.560173,81.281818 Z" style="stroke-linecap: butt; stroke-width: 1; stroke: rgb(0%,0%,0%);"/>
			<path d="M 30.000000,314.545455 L 570.000000,314.545455 Z" style="stroke-width: 1; stroke-linecap: butt; stroke: rgb(0%,0%,0%);"/>
			<path d="M 30.000000,312.090909 L 30.000000,317.000000 Z" style="stroke-linecap: butt; stroke-width: 1; stroke: rgb(0%,0%,0%);"/>
			<path d="M 569.886088,132.090909 L 569.886088,137.000000 Z" style="stroke-width: 1; stroke-linecap: butt; stroke: rgb(0%,0%,0%);"/>
			<path d="M 30.000000,134.545455 L 569.886088,134.545455 Z" style="stroke-linecap: butt; stroke-width: 1; stroke: rgb(0%,0%,0%);"/>
			<path d="M 30.000000,132.090909 L 30.000000,137.000000 Z" style="stroke-width: 1; stroke-linecap: butt; stroke: rgb(0%,0%,0%);"/>
			<path d="M 59.560173,134.545455 L 59.560173,135.281818 Z" style="stroke-linecap: butt; stroke-width: 1; stroke: rgb(0%,0%,0%);"/>
			<path d="M 30.000000,368.545455 L 570.000000,368.545455 Z" style="stroke-width: 1; stroke-linecap: butt; stroke: rgb(0%,0%,0%);"/>
			<path d="M 30.000000,366.090909 L 30.000000,371.000000 Z" style="stroke-linecap: butt; stroke-width: 1; stroke: rgb(0%,0%,0%);"/>
			<path d="M 569.886088,186.090909 L 569.886088,191.000000 Z" style="stroke-width: 1; stroke-linecap: butt; stroke: rgb(0%,0%,0%);"/>
			<path d="M 30.000000,188.545455 L 569.886088,188.545455 Z" style="stroke-linecap: butt; stroke-width: 1; stroke: rgb(0%,0%,0%);"/>
			<path d="M 30.000000,186.090909 L 30.000000,191.000000 Z" style="stroke-width: 1; stroke-linecap: butt; stroke: rgb(0%,0%,0%);"/>
			<path d="M 59.560173,188.545455 L 59.560173,189.281818 Z" style="stroke-linecap: butt; stroke-width: 1; stroke: rgb(0%,0%,0%);"/>
			<g transform=" matrix(0.707107, 0.707107, -0.707107, 0.707107, 86.956017, 261.772727)">
				<text style="font-size: 10px; font-family: Helvetica; fill: rgb(0%,0%,0%);" transform="translate(0,0) scale(1,-1)" x="0" y="0">1000</text>
			</g>
			<g transform=" matrix(0.707107, 0.707107, -0.707107, 0.707107, 143.912035, 261.772727)">
				<text style="font-size: 10px; font-family: Helvetica; fill: rgb(0%,0%,0%);" transform="translate(0,0) scale(1,-1)" x="0" y="0">2000</text>
			</g>
			<g transform=" matrix(0.707107, 0.707107, -0.707107, 0.707107, 200.868052, 261.772727)">
				<text style="font-size: 10px; font-family: Helvetica; fill: rgb(0%,0%,0%);" transform="translate(0,0) scale(1,-1)" x="0" y="0">3000</text>
			</g>
			<g transform=" matrix(0.707107, 0.707107, -0.707107, 0.707107, 257.824069, 261.772727)">
				<text style="font-size: 10px; font-family: Helvetica; fill: rgb(0%,0%,0%);" transform="translate(0,0) scale(1,-1)" x="0" y="0">4000</text>
			</g>
			<g transform=" matrix(0.707107, 0.707107, -0.707107, 0.707107, 314.780086, 261.772727)">
				<text style="font-size: 10px; font-family: Helvetica; fill: rgb(0%,0%,0%);" transform="translate(0,0) scale(1,-1)" x="0" y="0">5000</text>
			</g>
			<g transform=" matrix(0.707107, 0.707107, -0.707107, 0.707107, 371.736104, 261.772727)">
				<text style="font-size: 10px; font-family: Helvetica; fill: rgb(0%,0%,0%);" transform="translate(0,0) scale(1,-1)" x="0" y="0">6000</text>
			</g>
			<g transform=" matrix(0.707107, 0.707107, -0.707107, 0.707107, 428.692121, 261.772727)">
				<text style="font-size: 10px; font-family: Helvetica; fill: rgb(0%,0%,0%);" transform="translate(0,0) scale(1,-1)" x="0" y="0">7000</text>
			</g>
			<g transform=" matrix(0.707107, 0.707107, -0.707107, 0.707107, 485.648138, 261.772727)">
				<text style="font-size: 10px; font-family: Helvetica; fill: rgb(0%,0%,0%);" transform="translate(0,0) scale(1,-1)" x="0" y="0">8000</text>
			</g>
			<g transform=" matrix(0.707107, 0.707107, -0.707107, 0.707107, 542.604156, 261.772727)">
				<text style="font-size: 10px; font-family: Helvetica; fill: rgb(0%,0%,0%);" transform="translate(0,0) scale(1,-1)" x="0" y="0">9000</text>
			</g>
			<g transform=" matrix(0.707107, 0.707107, -0.707107, 0.707107, 59.560173, 81.772727)">
				<text style="font-size: 10px; font-family: Helvetica; fill: rgb(0%,0%,0%);" transform="translate(0,0) scale(1,-1)" x="0" y="0">10000</text>
			</g>
			<g transform=" matrix(0.707107, 0.707107, -0.707107, 0.707107, 116.516190, 81.772727)">
				<text style="font-size: 10px; font-family: Helvetica; fill: rgb(0%,0%,0%);" transform="translate(0,0) scale(1,-1)" x="0" y="0">11000</text>
			</g>
			<g transform=" matrix(0.707107, 0.707107, -0.707107, 0.707107, 173.472208, 81.772727)">
				<text style="font-size: 10px; font-family: Helvetica; fill: rgb(0%,0%,0%);" transform="translate(0,0) scale(1,-1)" x="0" y="0">12000</text>
			</g>
			<g transform=" matrix(0.707107, 0.707107, -0.707107, 0.707107, 230.428225, 81.772727)">
				<text style="font-size: 10px; font-family: Helvetica; fill: rgb(0%,0%,0%);" transform="translate(0,0) scale(1,-1)" x="0" y="0">13000</text>
			</g>
			<g transform=" matrix(0.707107, 0.707107, -0.707107, 0.707107, 287.384242, 81.772727)">
				<text style="font-size: 10px; font-family: Helvetica; fill: rgb(0%,0%,0%);" transform="translate(0,0) scale(1,-1)" x="0" y="0">14000</text>
			</g>
			<g transform=" matrix(0.707107, 0.707107, -0.707107, 0.707107, 344.340259, 81.772727)">
				<text style="font-size: 10px; font-family: Helvetica; fill: rgb(0%,0%,0%);" transform="translate(0,0) scale(1,-1)" x="0" y="0">15000</text>
			</g>
			<g transform=" matrix(0.707107, 0.707107, -0.707107, 0.707107, 401.296277, 81.772727)">
				<text style="font-size: 10px; font-family: Helvetica; fill: rgb(0%,0%,0%);" transform="translate(0,0) scale(1,-1)" x="0" y="0">16000</text>
			</g>
			<g transform=" matrix(0.707107, 0.707107, -0.707107, 0.707107, 458.252294, 81.772727)">
				<text style="font-size: 10px; font-family: Helvetica; fill: rgb(0%,0%,0%);" transform="translate(0,0) scale(1,-1)" x="0" y="0">17000</text>
			</g>
			<g transform=" matrix(0.707107, 0.707107, -0.707107, 0.707107, 515.208311, 81.772727)">
				<text style="font-size: 10px; font-family: Helvetica; fill: rgb(0%,0%,0%);" transform="translate(0,0) scale(1,-1)" x="0" y="0">18000</text>
			</g>
			<g transform=" matrix(1.000000, 0.000000, -0.000000, 1.000000, 68.815526, 317.000000)">
				<text style="font-size: 10px; font-family: Helvetica; fill: rgb(0%,0%,0%);" transform="translate(0,0) scale(1,-1)" x="0" y="0">2</text>
			</g>
			<g transform=" matrix(1.000000, 0.000000, -0.000000, 1.000000, 115.804240, 317.000000)">
				<text style="font-size: 10px; font-family: Helvetica; fill: rgb(0%,0%,0%);" transform="translate(0,0) scale(1,-1)" x="0" y="0">4</text>
			</g>
			<g transform=" matrix(1.000000, 0.000000, -0.000000, 1.000000, 162.280350, 317.000000)">
				<text style="font-size: 10px; font-family: Helvetica; fill: rgb(0%,0%,0%);" transform="translate(0,0) scale(1,-1)" x="0" y="0">6</text>
			</g>
			<g transform=" matrix(1.000000, 0.000000, -0.000000, 1.000000, 208.386246, 317.000000)">
				<text style="font-size: 10px; font-family: Helvetica; fill: rgb(0%,0%,0%);" transform="translate(0,0) scale(1,-1)" x="0" y="0">8</text>
			</g>
			<g transform=" matrix(1.000000, 0.000000, -0.000000, 1.000000, 253.922582, 317.000000)">
				<text style="font-size: 10px; font-family: Helvetica; fill: rgb(0%,0%,0%);" transform="translate(0,0) scale(1,-1)" x="0" y="0">10</text>
			</g>
			<g transform=" matrix(1.000000, 0.000000, -0.000000, 1.000000, 299.458918, 317.000000)">
				<text style="font-size: 10px; font-family: Helvetica; fill: rgb(0%,0%,0%);" transform="translate(0,0) scale(1,-1)" x="0" y="0">12</text>
			</g>
			<g transform=" matrix(1.000000, 0.000000, -0.000000, 1.000000, 344.938298, 317.000000)">
				<text style="font-size: 10px; font-family: Helvetica; fill: rgb(0%,0%,0%);" transform="translate(0,0) scale(1,-1)" x="0" y="0">14</text>
			</g>
			<g transform=" matrix(1.000000, 0.000000, -0.000000, 1.000000, 392.354182, 317.000000)">
				<text style="font-size: 10px; font-family: Helvetica; fill: rgb(0%,0%,0%);" transform="translate(0,0) scale(1,-1)" x="0" y="0">16</text>
			</g>
			<g transform=" matrix(1.000000, 0.000000, -0.000000, 1.000000, 437.890518, 317.000000)">
				<text style="font-size: 10px; font-family: Helvetica; fill: rgb(0%,0%,0%);" transform="translate(0,0) scale(1,-1)" x="0" y="0">18</text>
			</g>
			<g transform=" matrix(1.000000, 0.000000, -0.000000, 1.000000, 483.483810, 317.000000)">
				<text style="font-size: 10px; font-family: Helvetica; fill: rgb(0%,0%,0%);" transform="translate(0,0) scale(1,-1)" x="0" y="0">20</text>
			</g>
			<g transform=" matrix(1.000000, 0.000000, -0.000000, 1.000000, 528.564497, 317.000000)">
				<text style="font-size: 10px; font-family: Helvetica; fill: rgb(0%,0%,0%);" transform="translate(0,0) scale(1,-1)" x="0" y="0">22</text>
			</g>
			<g transform=" matrix(1.000000, 0.000000, -0.000000, 1.000000, 563.962662, 317.000000)">
				<text style="font-size: 10px; font-family: Helvetica; fill: rgb(0%,0%,0%);" transform="translate(0,0) scale(1,-1)" x="0" y="0">24</text>
			</g>
			<g transform=" matrix(1.000000, 0.000000, -0.000000, 1.000000, 38.714271, 137.000000)">
				<text style="font-size: 10px; font-family: Helvetica; fill: rgb(0%,0%,0%);" transform="translate(0,0) scale(1,-1)" x="0" y="0">24</text>
			</g>
			<g transform=" matrix(1.000000, 0.000000, -0.000000, 1.000000, 78.555005, 137.000000)">
				<text style="font-size: 10px; font-family: Helvetica; fill: rgb(0%,0%,0%);" transform="translate(0,0) scale(1,-1)" x="0" y="0">26</text>
			</g>
			<g transform=" matrix(1.000000, 0.000000, -0.000000, 1.000000, 122.325704, 137.000000)">
				<text style="font-size: 10px; font-family: Helvetica; fill: rgb(0%,0%,0%);" transform="translate(0,0) scale(1,-1)" x="0" y="0">28</text>
			</g>
			<g transform=" matrix(1.000000, 0.000000, -0.000000, 1.000000, 167.577260, 137.000000)">
				<text style="font-size: 10px; font-family: Helvetica; fill: rgb(0%,0%,0%);" transform="translate(0,0) scale(1,-1)" x="0" y="0">30</text>
			</g>
			<g transform=" matrix(1.000000, 0.000000, -0.000000, 1.000000, 213.540766, 137.000000)">
				<text style="font-size: 10px; font-family: Helvetica; fill: rgb(0%,0%,0%);" transform="translate(0,0) scale(1,-1)" x="0" y="0">32</text>
			</g>
			<g transform=" matrix(1.000000, 0.000000, -0.000000, 1.000000, 259.561228, 137.000000)">
				<text style="font-size: 10px; font-family: Helvetica; fill: rgb(0%,0%,0%);" transform="translate(0,0) scale(1,-1)" x="0" y="0">34</text>
			</g>
			<g transform=" matrix(1.000000, 0.000000, -0.000000, 1.000000, 305.610168, 137.000000)">
				<text style="font-size: 10px; font-family: Helvetica; fill: rgb(0%,0%,0%);" transform="translate(0,0) scale(1,-1)" x="0" y="0">36</text>
			</g>
			<g transform=" matrix(1.000000, 0.000000, -0.000000, 1.000000, 351.345850, 137.000000)">
				<text style="font-size: 10px; font-family: Helvetica; fill: rgb(0%,0%,0%);" transform="translate(0,0) scale(1,-1)" x="0" y="0">38</text>
			</g>
			<g transform=" matrix(1.000000, 0.000000, -0.000000, 1.000000, 397.280878, 137.000000)">
				<text style="font-size: 10px; font-family: Helvetica; fill: rgb(0%,0%,0%);" transform="translate(0,0) scale(1,-1)" x="0" y="0">40</text>
			</g>
			<g transform=" matrix(1.000000, 0.000000, -0.000000, 1.000000, 442.845691, 137.000000)">
				<text style="font-size: 10px; font-family: Helvetica; fill: rgb(0%,0%,0%);" transform="translate(0,0) scale(1,-1)" x="0" y="0">42</text>
			</g>
			<g transform=" matrix(1.000000, 0.000000, -0.000000, 1.000000, 489.777450, 137.000000)">
				<text style="font-size: 10px; font-family: Helvetica; fill: rgb(0%,0%,0%);" transform="translate(0,0) scale(1,-1)" x="0" y="0">44</text>
			</g>
			<g transform=" matrix(1.000000, 0.000000, -0.000000, 1.000000, 533.918363, 137.000000)">
				<text style="font-size: 10px; font-family: Helvetica; fill: rgb(0%,0%,0%);" transform="translate(0,0) scale(1,-1)" x="0" y="0">46</text>
			</g>
			<g transform=" matrix(1.000000, 0.000000, -0.000000, 1.000000, 45.947685, 371.000000)">
				<text style="font-size: 10px; font-family: Helvetica; fill: rgb(0%,0%,0%);" transform="translate(0,0) scale(1,-1)" x="0" y="0">1</text>
			</g>
			<g transform=" matrix(1.000000, 0.000000, -0.000000, 1.000000, 92.879443, 371.000000)">
				<text style="font-size: 10px; font-family: Helvetica; fill: rgb(0%,0%,0%);" transform="translate(0,0) scale(1,-1)" x="0" y="0">3</text>
			</g>
			<g transform=" matrix(1.000000, 0.000000, -0.000000, 1.000000, 139.697289, 371.000000)">
				<text style="font-size: 10px; font-family: Helvetica; fill: rgb(0%,0%,0%);" transform="translate(0,0) scale(1,-1)" x="0" y="0">5</text>
			</g>
			<g transform=" matrix(1.000000, 0.000000, -0.000000, 1.000000, 186.771438, 371.000000)">
				<text style="font-size: 10px; font-family: Helvetica; fill: rgb(0%,0%,0%);" transform="translate(0,0) scale(1,-1)" x="0" y="0">7</text>
			</g>
			<g transform=" matrix(1.000000, 0.000000, -0.000000, 1.000000, 231.652779, 371.000000)">
				<text style="font-size: 10px; font-family: Helvetica; fill: rgb(0%,0%,0%);" transform="translate(0,0) scale(1,-1)" x="0" y="0">9</text>
			</g>
			<g transform=" matrix(1.000000, 0.000000, -0.000000, 1.000000, 276.676511, 371.000000)">
				<text style="font-size: 10px; font-family: Helvetica; fill: rgb(0%,0%,0%);" transform="translate(0,0) scale(1,-1)" x="0" y="0">11</text>
			</g>
			<g transform=" matrix(1.000000, 0.000000, -0.000000, 1.000000, 321.529375, 371.000000)">
				<text style="font-size: 10px; font-family: Helvetica; fill: rgb(0%,0%,0%);" transform="translate(0,0) scale(1,-1)" x="0" y="0">13</text>
			</g>
			<g transform=" matrix(1.000000, 0.000000, -0.000000, 1.000000, 368.831347, 371.000000)">
				<text style="font-size: 10px; font-family: Helvetica; fill: rgb(0%,0%,0%);" transform="translate(0,0) scale(1,-1)" x="0" y="0">15</text>
			</g>
			<g transform=" matrix(1.000000, 0.000000, -0.000000, 1.000000, 415.335935, 371.000000)">
				<text style="font-size: 10px; font-family: Helvetica; fill: rgb(0%,0%,0%);" transform="translate(0,0) scale(1,-1)" x="0" y="0">17</text>
			</g>
			<g transform=" matrix(1.000000, 0.000000, -0.000000, 1.000000, 460.615969, 371.000000)">
				<text style="font-size: 10px; font-family: Helvetica; fill: rgb(0%,0%,0%);" transform="translate(0,0) scale(1,-1)" x="0" y="0">19</text>
			</g>
			<g transform=" matrix(1.000000, 0.000000, -0.000000, 1.000000, 504.927750, 371.000000)">
				<text style="font-size: 10px; font-family: Helvetica; fill: rgb(0%,0%,0%);" transform="translate(0,0) scale(1,-1)" x="0" y="0">21</text>
			</g>
			<g transform=" matrix(1.000000, 0.000000, -0.000000, 1.000000, 549.951482, 371.000000)">
				<text style="font-size: 10px; font-family: Helvetica; fill: rgb(0%,0%,0%);" transform="translate(0,0) scale(1,-1)" x="0" y="0">23</text>
			</g>
			<g transform=" matrix(1.000000, 0.000000, -0.000000, 1.000000, 55.430862, 191.000000)">
				<text style="font-size: 10px; font-family: Helvetica; fill: rgb(0%,0%,0%);" transform="translate(0,0) scale(1,-1)" x="0" y="0">25</text>
			</g>
			<g transform=" matrix(1.000000, 0.000000, -0.000000, 1.000000, 100.995676, 191.000000)">
				<text style="font-size: 10px; font-family: Helvetica; fill: rgb(0%,0%,0%);" transform="translate(0,0) scale(1,-1)" x="0" y="0">27</text>
			</g>
			<g transform=" matrix(1.000000, 0.000000, -0.000000, 1.000000, 144.082903, 191.000000)">
				<text style="font-size: 10px; font-family: Helvetica; fill: rgb(0%,0%,0%);" transform="translate(0,0) scale(1,-1)" x="0" y="0">29</text>
			</g>
			<g transform=" matrix(1.000000, 0.000000, -0.000000, 1.000000, 190.074887, 191.000000)">
				<text style="font-size: 10px; font-family: Helvetica; fill: rgb(0%,0%,0%);" transform="translate(0,0) scale(1,-1)" x="0" y="0">31</text>
			</g>
			<g transform=" matrix(1.000000, 0.000000, -0.000000, 1.000000, 235.525788, 191.000000)">
				<text style="font-size: 10px; font-family: Helvetica; fill: rgb(0%,0%,0%);" transform="translate(0,0) scale(1,-1)" x="0" y="0">33</text>
			</g>
			<g transform=" matrix(1.000000, 0.000000, -0.000000, 1.000000, 282.286679, 191.000000)">
				<text style="font-size: 10px; font-family: Helvetica; fill: rgb(0%,0%,0%);" transform="translate(0,0) scale(1,-1)" x="0" y="0">35</text>
			</g>
			<g transform=" matrix(1.000000, 0.000000, -0.000000, 1.000000, 328.990613, 191.000000)">
				<text style="font-size: 10px; font-family: Helvetica; fill: rgb(0%,0%,0%);" transform="translate(0,0) scale(1,-1)" x="0" y="0">37</text>
			</g>
			<g transform=" matrix(1.000000, 0.000000, -0.000000, 1.000000, 374.014344, 191.000000)">
				<text style="font-size: 10px; font-family: Helvetica; fill: rgb(0%,0%,0%);" transform="translate(0,0) scale(1,-1)" x="0" y="0">39</text>
			</g>
			<g transform=" matrix(1.000000, 0.000000, -0.000000, 1.000000, 420.376543, 191.000000)">
				<text style="font-size: 10px; font-family: Helvetica; fill: rgb(0%,0%,0%);" transform="translate(0,0) scale(1,-1)" x="0" y="0">41</text>
			</g>
			<g transform=" matrix(1.000000, 0.000000, -0.000000, 1.000000, 465.855922, 191.000000)">
				<text style="font-size: 10px; font-family: Helvetica; fill: rgb(0%,0%,0%);" transform="translate(0,0) scale(1,-1)" x="0" y="0">43</text>
			</g>
			<g transform=" matrix(1.000000, 0.000000, -0.000000, 1.000000, 512.445945, 191.000000)">
				<text style="font-size: 10px; font-family: Helvetica; fill: rgb(0%,0%,0%);" transform="translate(0,0) scale(1,-1)" x="0" y="0">45</text>
			</g>
			<g transform=" matrix(1.000000, 0.000000, -0.000000, 1.000000, 553.739057, 191.000000)">
				<text style="font-size: 10px; font-family: Helvetica; fill: rgb(0%,0%,0%);" transform="translate(0,0) scale(1,-1)" x="0" y="0">47</text>
			</g>
		</g>
	</g>
</svg>
