<?xml version="1.0" encoding="utf-8"?>
<!DOCTYPE svg
  PUBLIC '-//W3C//DTD SVG 1.0//EN'
  'http://www.w3.org/TR/2001/REC-SVG-20010904/DTD/svg10.dtd'>
<svg fill-rule="evenodd" height="750" preserveAspectRatio="xMinYMin meet" version="1.0" viewBox="0 0 1000 750" width="1000" xmlns="http://www.w3.org/2000/svg" xmlns:xlink="http://www.w3.org/1999/xlink">
	<title>...</title>
	<desc>...</desc>
	<clipPath id="clip">
		<rect height="750" width="1000" x="0" y="0"/>
	</clipPath>
	<g id="group" style="clip-path: url(#clip)" transform="scale(1,-1) translate(0,-750)">
		<g transform="">
			<polygon points="179.161392 627.613636, 317.863924 627.613636, 317.863924 633.750000, 179.161392 633.750000" style="stroke-width: 1; stroke-linecap: butt; stroke: rgb(85%,43%,57%); fill: rgb(85%,43%,57%);"/>
			<polygon points="179.161392 627.613636, 182.294304 627.613636, 182.294304 633.750000, 179.161392 633.750000" style="stroke-linecap: butt; stroke-width: 1; stroke: rgb(100%,0%,0%); fill: rgb(100%,0%,0%);"/>
			<polygon points="314.731013 627.613636, 317.863924 627.613636, 317.863924 633.750000, 314.731013 633.750000" style="stroke-width: 1; stroke-linecap: butt; stroke: rgb(100%,0%,0%); fill: rgb(100%,0%,0%);"/>
			<polygon points="413.844937 627.613636, 559.525316 627.613636, 559.525316 633.750000, 413.844937 633.750000" style="stroke-linecap: butt; stroke-width: 1; stroke: rgb(85%,43%,57%); fill: rgb(85%,43%,57%);"/>
			<polygon points="413.844937 627.613636, 416.977848 627.613636, 416.977848 633.750000, 413.844937 633.750000" style="stroke-width: 1; stroke-linecap: butt; stroke: rgb(100%,0%,0%); fill: rgb(100%,0%,0%);"/>
			<polygon points="556.392405 627.613636, 559.525316 627.613636, 559.525316 633.750000, 556.392405 633.750000" style="stroke-linecap: butt; stroke-width: 1; stroke: rgb(100%,0%,0%); fill: rgb(100%,0%,0%);"/>
			<polygon points="658.639241 627.613636, 804.889241 627.613636, 804.889241 633.750000, 658.639241 633.750000" style="stroke-width: 1; stroke-linecap: butt; stroke: rgb(85%,43%,57%); fill: rgb(85%,43%,57%);"/>
			<polygon points="658.639241 627.613636, 662.768987 627.613636, 662.768987 633.750000, 658.639241 633.750000" style="stroke-linecap: butt; stroke-width: 1; stroke: rgb(100%,0%,0%); fill: rgb(100%,0%,0%);"/>
			<polygon points="801.756329 627.613636, 804.889241 627.613636, 804.889241 633.750000, 801.756329 633.750000" style="stroke-width: 1; stroke-linecap: butt; stroke: rgb(100%,0%,0%); fill: rgb(100%,0%,0%);"/>
			<polygon points="889.477848 627.613636, 950.000000 627.613636, 950.000000 633.750000, 889.477848 633.750000" style="stroke-linecap: butt; stroke-width: 1; stroke: rgb(85%,43%,57%); fill: rgb(85%,43%,57%);"/>
			<polygon points="50.000000 402.613636, 120.348101 402.613636, 120.348101 408.750000, 50.000000 408.750000" style="stroke-width: 1; stroke-linecap: butt; stroke: rgb(85%,43%,57%); fill: rgb(85%,43%,57%);"/>
			<polygon points="889.477848 627.613636, 892.610759 627.613636, 892.610759 633.750000, 889.477848 633.750000" style="stroke-linecap: butt; stroke-width: 1; stroke: rgb(100%,0%,0%); fill: rgb(100%,0%,0%);"/>
			<polygon points="117.215190 402.613636, 120.348101 402.613636, 120.348101 408.750000, 117.215190 408.750000" style="stroke-width: 1; stroke-linecap: butt; stroke: rgb(100%,0%,0%); fill: rgb(100%,0%,0%);"/>
			<polygon points="209.208861 402.613636, 350.189873 402.613636, 350.189873 408.750000, 209.208861 408.750000" style="stroke-linecap: butt; stroke-width: 1; stroke: rgb(85%,43%,57%); fill: rgb(85%,43%,57%);"/>
			<polygon points="209.208861 402.613636, 212.341772 402.613636, 212.341772 408.750000, 209.208861 408.750000" style="stroke-width: 1; stroke-linecap: butt; stroke: rgb(100%,0%,0%); fill: rgb(100%,0%,0%);"/>
			<polygon points="347.056962 402.613636, 350.189873 402.613636, 350.189873 408.750000, 347.056962 408.750000" style="stroke-linecap: butt; stroke-width: 1; stroke: rgb(100%,0%,0%); fill: rgb(100%,0%,0%);"/>
			<polygon points="451.439873 402.613636, 580.886076 402.613636, 580.886076 408.750000, 451.439873 408.750000" style="stroke-width: 1; stroke-linecap: butt; stroke: rgb(85%,43%,57%); fill: rgb(85%,43%,57%);"/>
			<polygon points="451.439873 402.613636, 455.284810 402.613636, 455.284810 408.750000, 451.439873 408.750000" style="stroke-linecap: butt; stroke-width: 1; stroke: rgb(100%,0%,0%); fill: rgb(100%,0%,0%);"/>
			<polygon points="577.753165 402.613636, 580.886076 402.613636, 580.886076 408.750000, 577.753165 408.750000" style="stroke-width: 1; stroke-linecap: butt; stroke: rgb(100%,0%,0%); fill: rgb(100%,0%,0%);"/>
			<polygon points="666.756329 402.613636, 811.582278 402.613636, 811.582278 408.750000, 666.756329 408.750000" style="stroke-linecap: butt; stroke-width: 1; stroke: rgb(85%,43%,57%); fill: rgb(85%,43%,57%);"/>
			<polygon points="666.756329 402.613636, 669.889241 402.613636, 669.889241 408.750000, 666.756329 408.750000" style="stroke-width: 1; stroke-linecap: butt; stroke: rgb(100%,0%,0%); fill: rgb(100%,0%,0%);"/>
			<polygon points="808.449367 402.613636, 811.582278 402.613636, 811.582278 408.750000, 808.449367 408.750000" style="stroke-linecap: butt; stroke-width: 1; stroke: rgb(100%,0%,0%); fill: rgb(100%,0%,0%);"/>
			<polygon points="906.851266 402.613636, 950.000000 402.613636, 950.000000 408.750000, 906.851266 408.750000" style="stroke-width: 1; stroke-linecap: butt; stroke: rgb(85%,43%,57%); fill: rgb(85%,43%,57%);"/>
			<polygon points="50.000000 177.613636, 143.702532 177.613636, 143.702532 183.750000, 50.000000 183.750000" style="stroke-linecap: butt; stroke-width: 1; stroke: rgb(85%,43%,57%); fill: rgb(85%,43%,57%);"/>
			<polygon points="906.851266 402.613636, 910.838608 402.613636, 910.838608 408.750000, 906.851266 408.750000" style="stroke-width: 1; stroke-linecap: butt; stroke: rgb(100%,0%,0%); fill: rgb(100%,0%,0%);"/>
			<polygon points="140.569620 177.613636, 143.702532 177.613636, 143.702532 183.750000, 140.569620 183.750000" style="stroke-linecap: butt; stroke-width: 1; stroke: rgb(100%,0%,0%); fill: rgb(100%,0%,0%);"/>
			<polygon points="229.003165 177.613636, 358.022152 177.613636, 358.022152 183.750000, 229.003165 183.750000" style="stroke-width: 1; stroke-linecap: butt; stroke: rgb(85%,43%,57%); fill: rgb(85%,43%,57%);"/>
			<polygon points="229.003165 177.613636, 232.136076 177.613636, 232.136076 183.750000, 229.003165 183.750000" style="stroke-linecap: butt; stroke-width: 1; stroke: rgb(100%,0%,0%); fill: rgb(100%,0%,0%);"/>
			<polygon points="354.889241 177.613636, 358.022152 177.613636, 358.022152 183.750000, 354.889241 183.750000" style="stroke-width: 1; stroke-linecap: butt; stroke: rgb(100%,0%,0%); fill: rgb(100%,0%,0%);"/>
			<polygon points="454.430380 177.613636, 598.686709 177.613636, 598.686709 183.750000, 454.430380 183.750000" style="stroke-linecap: butt; stroke-width: 1; stroke: rgb(85%,43%,57%); fill: rgb(85%,43%,57%);"/>
			<polygon points="454.430380 177.613636, 457.563291 177.613636, 457.563291 183.750000, 454.430380 183.750000" style="stroke-width: 1; stroke-linecap: butt; stroke: rgb(100%,0%,0%); fill: rgb(100%,0%,0%);"/>
			<polygon points="595.553797 177.613636, 598.686709 177.613636, 598.686709 183.750000, 595.553797 183.750000" style="stroke-linecap: butt; stroke-width: 1; stroke: rgb(100%,0%,0%); fill: rgb(100%,0%,0%);"/>
			<polygon points="696.803797 177.613636, 839.351266 177.613636, 839.351266 183.750000, 696.803797 183.750000" style="stroke-width: 1; stroke-linecap: butt; stroke: rgb(85%,43%,57%); fill: rgb(85%,43%,57%);"/>
			<polygon points="696.803797 177.613636, 700.791139 177.613636, 700.791139 183.750000, 696.803797 183.750000" style="stroke-linecap: butt; stroke-width: 1; stroke: rgb(100%,0%,0%); fill: rgb(100%,0%,0%);"/>
			<polygon points="836.218354 177.613636, 839.351266 177.613636, 839.351266 183.750000, 836.218354 183.750000" style="stroke-width: 1; stroke-linecap: butt; stroke: rgb(100%,0%,0%); fill: rgb(100%,0%,0%);"/>
			<polygon points="54.556962 695.113636, 200.522152 695.113636, 200.522152 701.250000, 54.556962 701.250000" style="stroke-linecap: butt; stroke-width: 1; stroke: rgb(85%,43%,57%); fill: rgb(85%,43%,57%);"/>
			<polygon points="54.556962 695.113636, 58.401899 695.113636, 58.401899 701.250000, 54.556962 701.250000" style="stroke-width: 1; stroke-linecap: butt; stroke: rgb(100%,0%,0%); fill: rgb(100%,0%,0%);"/>
			<polygon points="197.389241 695.113636, 200.522152 695.113636, 200.522152 701.250000, 197.389241 701.250000" style="stroke-linecap: butt; stroke-width: 1; stroke: rgb(100%,0%,0%); fill: rgb(100%,0%,0%);"/>
			<polygon points="296.360759 695.113636, 436.060127 695.113636, 436.060127 701.250000, 296.360759 701.250000" style="stroke-width: 1; stroke-linecap: butt; stroke: rgb(85%,43%,57%); fill: rgb(85%,43%,57%);"/>
			<polygon points="296.360759 695.113636, 299.636076 695.113636, 299.636076 701.250000, 296.360759 701.250000" style="stroke-linecap: butt; stroke-width: 1; stroke: rgb(100%,0%,0%); fill: rgb(100%,0%,0%);"/>
			<polygon points="432.927215 695.113636, 436.060127 695.113636, 436.060127 701.250000, 432.927215 701.250000" style="stroke-width: 1; stroke-linecap: butt; stroke: rgb(100%,0%,0%); fill: rgb(100%,0%,0%);"/>
			<polygon points="536.598101 695.113636, 680.996835 695.113636, 680.996835 701.250000, 536.598101 701.250000" style="stroke-linecap: butt; stroke-width: 1; stroke: rgb(85%,43%,57%); fill: rgb(85%,43%,57%);"/>
			<polygon points="536.598101 695.113636, 539.731013 695.113636, 539.731013 701.250000, 536.598101 701.250000" style="stroke-width: 1; stroke-linecap: butt; stroke: rgb(100%,0%,0%); fill: rgb(100%,0%,0%);"/>
			<polygon points="677.863924 695.113636, 680.996835 695.113636, 680.996835 701.250000, 677.863924 701.250000" style="stroke-linecap: butt; stroke-width: 1; stroke: rgb(100%,0%,0%); fill: rgb(100%,0%,0%);"/>
			<polygon points="783.243671 695.113636, 911.835443 695.113636, 911.835443 701.250000, 783.243671 701.250000" style="stroke-width: 1; stroke-linecap: butt; stroke: rgb(85%,43%,57%); fill: rgb(85%,43%,57%);"/>
			<polygon points="783.243671 695.113636, 786.376582 695.113636, 786.376582 701.250000, 783.243671 701.250000" style="stroke-linecap: butt; stroke-width: 1; stroke: rgb(100%,0%,0%); fill: rgb(100%,0%,0%);"/>
			<polygon points="908.702532 695.113636, 911.835443 695.113636, 911.835443 701.250000, 908.702532 701.250000" style="stroke-width: 1; stroke-linecap: butt; stroke: rgb(100%,0%,0%); fill: rgb(100%,0%,0%);"/>
			<polygon points="97.848101 470.113636, 234.272152 470.113636, 234.272152 476.250000, 97.848101 476.250000" style="stroke-linecap: butt; stroke-width: 1; stroke: rgb(85%,43%,57%); fill: rgb(85%,43%,57%);"/>
			<polygon points="97.848101 470.113636, 100.981013 470.113636, 100.981013 476.250000, 97.848101 476.250000" style="stroke-width: 1; stroke-linecap: butt; stroke: rgb(100%,0%,0%); fill: rgb(100%,0%,0%);"/>
			<polygon points="231.139241 470.113636, 234.272152 470.113636, 234.272152 476.250000, 231.139241 476.250000" style="stroke-linecap: butt; stroke-width: 1; stroke: rgb(100%,0%,0%); fill: rgb(100%,0%,0%);"/>
			<polygon points="323.275316 470.113636, 472.800633 470.113636, 472.800633 476.250000, 323.275316 476.250000" style="stroke-width: 1; stroke-linecap: butt; stroke: rgb(85%,43%,57%); fill: rgb(85%,43%,57%);"/>
			<polygon points="323.275316 470.113636, 327.547468 470.113636, 327.547468 476.250000, 323.275316 476.250000" style="stroke-linecap: butt; stroke-width: 1; stroke: rgb(100%,0%,0%); fill: rgb(100%,0%,0%);"/>
			<polygon points="469.667722 470.113636, 472.800633 470.113636, 472.800633 476.250000, 469.667722 476.250000" style="stroke-width: 1; stroke-linecap: butt; stroke: rgb(100%,0%,0%); fill: rgb(100%,0%,0%);"/>
			<polygon points="559.098101 470.113636, 689.256329 470.113636, 689.256329 476.250000, 559.098101 476.250000" style="stroke-linecap: butt; stroke-width: 1; stroke: rgb(85%,43%,57%); fill: rgb(85%,43%,57%);"/>
			<polygon points="559.098101 470.113636, 562.658228 470.113636, 562.658228 476.250000, 559.098101 476.250000" style="stroke-width: 1; stroke-linecap: butt; stroke: rgb(100%,0%,0%); fill: rgb(100%,0%,0%);"/>
			<polygon points="686.123418 470.113636, 689.256329 470.113636, 689.256329 476.250000, 686.123418 476.250000" style="stroke-linecap: butt; stroke-width: 1; stroke: rgb(100%,0%,0%); fill: rgb(100%,0%,0%);"/>
			<polygon points="790.079114 470.113636, 928.496835 470.113636, 928.496835 476.250000, 790.079114 476.250000" style="stroke-width: 1; stroke-linecap: butt; stroke: rgb(85%,43%,57%); fill: rgb(85%,43%,57%);"/>
			<polygon points="790.079114 470.113636, 793.354430 470.113636, 793.354430 476.250000, 790.079114 476.250000" style="stroke-linecap: butt; stroke-width: 1; stroke: rgb(100%,0%,0%); fill: rgb(100%,0%,0%);"/>
			<polygon points="925.363924 470.113636, 928.496835 470.113636, 928.496835 476.250000, 925.363924 476.250000" style="stroke-width: 1; stroke-linecap: butt; stroke: rgb(100%,0%,0%); fill: rgb(100%,0%,0%);"/>
			<polygon points="121.344937 245.113636, 251.218354 245.113636, 251.218354 251.250000, 121.344937 251.250000" style="stroke-linecap: butt; stroke-width: 1; stroke: rgb(85%,43%,57%); fill: rgb(85%,43%,57%);"/>
			<polygon points="121.344937 245.113636, 125.617089 245.113636, 125.617089 251.250000, 121.344937 251.250000" style="stroke-width: 1; stroke-linecap: butt; stroke: rgb(100%,0%,0%); fill: rgb(100%,0%,0%);"/>
			<polygon points="248.085443 245.113636, 251.218354 245.113636, 251.218354 251.250000, 248.085443 251.250000" style="stroke-linecap: butt; stroke-width: 1; stroke: rgb(100%,0%,0%); fill: rgb(100%,0%,0%);"/>
			<polygon points="336.376582 245.113636, 477.642405 245.113636, 477.642405 251.250000, 336.376582 251.250000" style="stroke-width: 1; stroke-linecap: butt; stroke: rgb(85%,43%,57%); fill: rgb(85%,43%,57%);"/>
			<polygon points="336.376582 245.113636, 339.509494 245.113636, 339.509494 251.250000, 336.376582 251.250000" style="stroke-linecap: butt; stroke-width: 1; stroke: rgb(100%,0%,0%); fill: rgb(100%,0%,0%);"/>
			<polygon points="474.509494 245.113636, 477.642405 245.113636, 477.642405 251.250000, 474.509494 251.250000" style="stroke-width: 1; stroke-linecap: butt; stroke: rgb(100%,0%,0%); fill: rgb(100%,0%,0%);"/>
			<polygon points="575.617089 245.113636, 718.306962 245.113636, 718.306962 251.250000, 575.617089 251.250000" style="stroke-linecap: butt; stroke-width: 1; stroke: rgb(85%,43%,57%); fill: rgb(85%,43%,57%);"/>
			<polygon points="575.617089 245.113636, 579.462025 245.113636, 579.462025 251.250000, 575.617089 251.250000" style="stroke-width: 1; stroke-linecap: butt; stroke: rgb(100%,0%,0%); fill: rgb(100%,0%,0%);"/>
			<polygon points="715.174051 245.113636, 718.306962 245.113636, 718.306962 251.250000, 715.174051 251.250000" style="stroke-linecap: butt; stroke-width: 1; stroke: rgb(100%,0%,0%); fill: rgb(100%,0%,0%);"/>
			<polygon points="804.889241 245.113636, 943.734177 245.113636, 943.734177 251.250000, 804.889241 251.250000" style="stroke-width: 1; stroke-linecap: butt; stroke: rgb(85%,43%,57%); fill: rgb(85%,43%,57%);"/>
			<polygon points="804.889241 245.113636, 808.734177 245.113636, 808.734177 251.250000, 804.889241 251.250000" style="stroke-linecap: butt; stroke-width: 1; stroke: rgb(100%,0%,0%); fill: rgb(100%,0%,0%);"/>
			<polygon points="940.601266 245.113636, 943.734177 245.113636, 943.734177 251.250000, 940.601266 251.250000" style="stroke-width: 1; stroke-linecap: butt; stroke: rgb(100%,0%,0%); fill: rgb(100%,0%,0%);"/>
			<path d="M 50.000000,563.181818 L 950.000000,563.181818 Z" style="stroke-linecap: butt; stroke-width: 1; stroke: rgb(0%,0%,0%);"/>
			<path d="M 50.000000,560.113636 L 50.000000,566.250000 Z" style="stroke-width: 1; stroke-linecap: butt; stroke: rgb(0%,0%,0%);"/>
			<path d="M 50.000000,338.181818 L 950.000000,338.181818 Z" style="stroke-linecap: butt; stroke-width: 1; stroke: rgb(0%,0%,0%);"/>
			<path d="M 50.000000,335.113636 L 50.000000,341.250000 Z" style="stroke-width: 1; stroke-linecap: butt; stroke: rgb(0%,0%,0%);"/>
			<path d="M 949.572785,110.113636 L 949.572785,116.250000 Z" style="stroke-linecap: butt; stroke-width: 1; stroke: rgb(0%,0%,0%);"/>
			<path d="M 50.000000,113.181818 L 949.572785,113.181818 Z" style="stroke-width: 1; stroke-linecap: butt; stroke: rgb(0%,0%,0%);"/>
			<path d="M 50.000000,110.113636 L 50.000000,116.250000 Z" style="stroke-linecap: butt; stroke-width: 1; stroke: rgb(0%,0%,0%);"/>
			<path d="M 192.405063,563.181818 L 192.405063,564.715909 Z" style="stroke-width: 1; stroke-linecap: butt; stroke: rgb(0%,0%,0%);"/>
			<path d="M 334.810127,563.181818 L 334.810127,564.715909 Z" style="stroke-linecap: butt; stroke-width: 1; stroke: rgb(0%,0%,0%);"/>
			<path d="M 477.215190,563.181818 L 477.215190,564.715909 Z" style="stroke-width: 1; stroke-linecap: butt; stroke: rgb(0%,0%,0%);"/>
			<path d="M 619.620253,563.181818 L 619.620253,564.715909 Z" style="stroke-linecap: butt; stroke-width: 1; stroke: rgb(0%,0%,0%);"/>
			<path d="M 762.025316,563.181818 L 762.025316,564.715909 Z" style="stroke-width: 1; stroke-linecap: butt; stroke: rgb(0%,0%,0%);"/>
			<path d="M 904.430380,563.181818 L 904.430380,564.715909 Z" style="stroke-linecap: butt; stroke-width: 1; stroke: rgb(0%,0%,0%);"/>
			<path d="M 146.835443,338.181818 L 146.835443,339.715909 Z" style="stroke-width: 1; stroke-linecap: butt; stroke: rgb(0%,0%,0%);"/>
			<path d="M 289.240506,338.181818 L 289.240506,339.715909 Z" style="stroke-linecap: butt; stroke-width: 1; stroke: rgb(0%,0%,0%);"/>
			<path d="M 431.645570,338.181818 L 431.645570,339.715909 Z" style="stroke-width: 1; stroke-linecap: butt; stroke: rgb(0%,0%,0%);"/>
			<path d="M 574.050633,338.181818 L 574.050633,339.715909 Z" style="stroke-linecap: butt; stroke-width: 1; stroke: rgb(0%,0%,0%);"/>
			<path d="M 716.455696,338.181818 L 716.455696,339.715909 Z" style="stroke-width: 1; stroke-linecap: butt; stroke: rgb(0%,0%,0%);"/>
			<path d="M 858.860759,338.181818 L 858.860759,339.715909 Z" style="stroke-linecap: butt; stroke-width: 1; stroke: rgb(0%,0%,0%);"/>
			<path d="M 101.265823,113.181818 L 101.265823,114.715909 Z" style="stroke-width: 1; stroke-linecap: butt; stroke: rgb(0%,0%,0%);"/>
			<path d="M 243.670886,113.181818 L 243.670886,114.715909 Z" style="stroke-linecap: butt; stroke-width: 1; stroke: rgb(0%,0%,0%);"/>
			<path d="M 386.075949,113.181818 L 386.075949,114.715909 Z" style="stroke-width: 1; stroke-linecap: butt; stroke: rgb(0%,0%,0%);"/>
			<path d="M 528.481013,113.181818 L 528.481013,114.715909 Z" style="stroke-linecap: butt; stroke-width: 1; stroke: rgb(0%,0%,0%);"/>
			<path d="M 670.886076,113.181818 L 670.886076,114.715909 Z" style="stroke-width: 1; stroke-linecap: butt; stroke: rgb(0%,0%,0%);"/>
			<path d="M 813.291139,113.181818 L 813.291139,114.715909 Z" style="stroke-linecap: butt; stroke-width: 1; stroke: rgb(0%,0%,0%);"/>
			<path d="M 574.050633,338.181818 L 574.050633,339.102273 Z" style="stroke-width: 1; stroke-linecap: butt; stroke: rgb(0%,0%,0%);"/>
			<path d="M 50.000000,630.681818 L 950.000000,630.681818 Z" style="stroke-linecap: butt; stroke-width: 1; stroke: rgb(0%,0%,0%);"/>
			<path d="M 50.000000,627.613636 L 50.000000,633.750000 Z" style="stroke-width: 1; stroke-linecap: butt; stroke: rgb(0%,0%,0%);"/>
			<path d="M 50.000000,405.681818 L 950.000000,405.681818 Z" style="stroke-linecap: butt; stroke-width: 1; stroke: rgb(0%,0%,0%);"/>
			<path d="M 50.000000,402.613636 L 50.000000,408.750000 Z" style="stroke-width: 1; stroke-linecap: butt; stroke: rgb(0%,0%,0%);"/>
			<path d="M 949.572785,177.613636 L 949.572785,183.750000 Z" style="stroke-linecap: butt; stroke-width: 1; stroke: rgb(0%,0%,0%);"/>
			<path d="M 50.000000,180.681818 L 949.572785,180.681818 Z" style="stroke-width: 1; stroke-linecap: butt; stroke: rgb(0%,0%,0%);"/>
			<path d="M 50.000000,177.613636 L 50.000000,183.750000 Z" style="stroke-linecap: butt; stroke-width: 1; stroke: rgb(0%,0%,0%);"/>
			<path d="M 574.050633,405.681818 L 574.050633,406.602273 Z" style="stroke-width: 1; stroke-linecap: butt; stroke: rgb(0%,0%,0%);"/>
			<path d="M 50.000000,698.181818 L 950.000000,698.181818 Z" style="stroke-linecap: butt; stroke-width: 1; stroke: rgb(0%,0%,0%);"/>
			<path d="M 50.000000,695.113636 L 50.000000,701.250000 Z" style="stroke-width: 1; stroke-linecap: butt; stroke: rgb(0%,0%,0%);"/>
			<path d="M 50.000000,473.181818 L 950.000000,473.181818 Z" style="stroke-linecap: butt; stroke-width: 1; stroke: rgb(0%,0%,0%);"/>
			<path d="M 50.000000,470.113636 L 50.000000,476.250000 Z" style="stroke-width: 1; stroke-linecap: butt; stroke: rgb(0%,0%,0%);"/>
			<path d="M 949.572785,245.113636 L 949.572785,251.250000 Z" style="stroke-linecap: butt; stroke-width: 1; stroke: rgb(0%,0%,0%);"/>
			<path d="M 50.000000,248.181818 L 949.572785,248.181818 Z" style="stroke-width: 1; stroke-linecap: butt; stroke: rgb(0%,0%,0%);"/>
			<path d="M 50.000000,245.113636 L 50.000000,251.250000 Z" style="stroke-linecap: butt; stroke-width: 1; stroke: rgb(0%,0%,0%);"/>
			<path d="M 574.050633,473.181818 L 574.050633,474.102273 Z" style="stroke-width: 1; stroke-linecap: butt; stroke: rgb(0%,0%,0%);"/>
			<g transform=" matrix(0.707107, 0.707107, -0.707107, 0.707107, 192.405063, 564.715909)">
				<text style="font-size: 10px; font-family: Helvetica; fill: rgb(0%,0%,0%);" transform="translate(0,0) scale(1,-1)" x="0" y="0">1000</text>
			</g>
			<g transform=" matrix(0.707107, 0.707107, -0.707107, 0.707107, 334.810127, 564.715909)">
				<text style="font-size: 10px; font-family: Helvetica; fill: rgb(0%,0%,0%);" transform="translate(0,0) scale(1,-1)" x="0" y="0">2000</text>
			</g>
			<g transform=" matrix(0.707107, 0.707107, -0.707107, 0.707107, 477.215190, 564.715909)">
				<text style="font-size: 10px; font-family: Helvetica; fill: rgb(0%,0%,0%);" transform="translate(0,0) scale(1,-1)" x="0" y="0">3000</text>
			</g>
			<g transform=" matrix(0.707107, 0.707107, -0.707107, 0.707107, 619.620253, 564.715909)">
				<text style="font-size: 10px; font-family: Helvetica; fill: rgb(0%,0%,0%);" transform="translate(0,0) scale(1,-1)" x="0" y="0">4000</text>
			</g>
			<g transform=" matrix(0.707107, 0.707107, -0.707107, 0.707107, 762.025316, 564.715909)">
				<text style="font-size: 10px; font-family: Helvetica; fill: rgb(0%,0%,0%);" transform="translate(0,0) scale(1,-1)" x="0" y="0">5000</text>
			</g>
			<g transform=" matrix(0.707107, 0.707107, -0.707107, 0.707107, 904.430380, 564.715909)">
				<text style="font-size: 10px; font-family: Helvetica; fill: rgb(0%,0%,0%);" transform="translate(0,0) scale(1,-1)" x="0" y="0">6000</text>
			</g>
			<g transform=" matrix(0.707107, 0.707107, -0.707107, 0.707107, 146.835443, 339.715909)">
				<text style="font-size: 10px; font-family: Helvetica; fill: rgb(0%,0%,0%);" transform="translate(0,0) scale(1,-1)" x="0" y="0">7000</text>
			</g>
			<g transform=" matrix(0.707107, 0.707107, -0.707107, 0.707107, 289.240506, 339.715909)">
				<text style="font-size: 10px; font-family: Helvetica; fill: rgb(0%,0%,0%);" transform="translate(0,0) scale(1,-1)" x="0" y="0">8000</text>
			</g>
			<g transform=" matrix(0.707107, 0.707107, -0.707107, 0.707107, 431.645570, 339.715909)">
				<text style="font-size: 10px; font-family: Helvetica; fill: rgb(0%,0%,0%);" transform="translate(0,0) scale(1,-1)" x="0" y="0">9000</text>
			</g>
			<g transform=" matrix(0.707107, 0.707107, -0.707107, 0.707107, 574.050633, 339.715909)">
				<text style="font-size: 10px; font-family: Helvetica; fill: rgb(0%,0%,0%);" transform="translate(0,0) scale(1,-1)" x="0" y="0">10000</text>
			</g>
			<g transform=" matrix(0.707107, 0.707107, -0.707107, 0.707107, 716.455696, 339.715909)">
				<text style="font-size: 10px; font-family: Helvetica; fill: rgb(0%,0%,0%);" transform="translate(0,0) scale(1,-1)" x="0" y="0">11000</text>
			</g>
			<g transform=" matrix(0.707107, 0.707107, -0.707107, 0.707107, 858.860759, 339.715909)">
				<text style="font-size: 10px; font-family: Helvetica; fill: rgb(0%,0%,0%);" transform="translate(0,0) scale(1,-1)" x="0" y="0">12000</text>
			</g>
			<g transform=" matrix(0.707107, 0.707107, -0.707107, 0.707107, 101.265823, 114.715909)">
				<text style="font-size: 10px; font-family: Helvetica; fill: rgb(0%,0%,0%);" transform="translate(0,0) scale(1,-1)" x="0" y="0">13000</text>
			</g>
			<g transform=" matrix(0.707107, 0.707107, -0.707107, 0.707107, 243.670886, 114.715909)">
				<text style="font-size: 10px; font-family: Helvetica; fill: rgb(0%,0%,0%);" transform="translate(0,0) scale(1,-1)" x="0" y="0">14000</text>
			</g>
			<g transform=" matrix(0.707107, 0.707107, -0.707107, 0.707107, 386.075949, 114.715909)">
				<text style="font-size: 10px; font-family: Helvetica; fill: rgb(0%,0%,0%);" transform="translate(0,0) scale(1,-1)" x="0" y="0">15000</text>
			</g>
			<g transform=" matrix(0.707107, 0.707107, -0.707107, 0.707107, 528.481013, 114.715909)">
				<text style="font-size: 10px; font-family: Helvetica; fill: rgb(0%,0%,0%);" transform="translate(0,0) scale(1,-1)" x="0" y="0">16000</text>
			</g>
			<g transform=" matrix(0.707107, 0.707107, -0.707107, 0.707107, 670.886076, 114.715909)">
				<text style="font-size: 10px; font-family: Helvetica; fill: rgb(0%,0%,0%);" transform="translate(0,0) scale(1,-1)" x="0" y="0">17000</text>
			</g>
			<g transform=" matrix(0.707107, 0.707107, -0.707107, 0.707107, 813.291139, 114.715909)">
				<text style="font-size: 10px; font-family: Helvetica; fill: rgb(0%,0%,0%);" transform="translate(0,0) scale(1,-1)" x="0" y="0">18000</text>
			</g>
			<g transform=" matrix(1.000000, 0.000000, -0.000000, 1.000000, 248.512658, 633.750000)">
				<text style="font-size: 10px; font-family: Helvetica; fill: rgb(0%,0%,0%);" transform="translate(0,0) scale(1,-1)" x="0" y="0">2</text>
			</g>
			<g transform=" matrix(1.000000, 0.000000, -0.000000, 1.000000, 486.685127, 633.750000)">
				<text style="font-size: 10px; font-family: Helvetica; fill: rgb(0%,0%,0%);" transform="translate(0,0) scale(1,-1)" x="0" y="0">4</text>
			</g>
			<g transform=" matrix(1.000000, 0.000000, -0.000000, 1.000000, 731.764241, 633.750000)">
				<text style="font-size: 10px; font-family: Helvetica; fill: rgb(0%,0%,0%);" transform="translate(0,0) scale(1,-1)" x="0" y="0">6</text>
			</g>
			<g transform=" matrix(1.000000, 0.000000, -0.000000, 1.000000, 919.738924, 633.750000)">
				<text style="font-size: 10px; font-family: Helvetica; fill: rgb(0%,0%,0%);" transform="translate(0,0) scale(1,-1)" x="0" y="0">8</text>
			</g>
			<g transform=" matrix(1.000000, 0.000000, -0.000000, 1.000000, 85.174051, 408.750000)">
				<text style="font-size: 10px; font-family: Helvetica; fill: rgb(0%,0%,0%);" transform="translate(0,0) scale(1,-1)" x="0" y="0">8</text>
			</g>
			<g transform=" matrix(1.000000, 0.000000, -0.000000, 1.000000, 279.699367, 408.750000)">
				<text style="font-size: 10px; font-family: Helvetica; fill: rgb(0%,0%,0%);" transform="translate(0,0) scale(1,-1)" x="0" y="0">10</text>
			</g>
			<g transform=" matrix(1.000000, 0.000000, -0.000000, 1.000000, 516.162975, 408.750000)">
				<text style="font-size: 10px; font-family: Helvetica; fill: rgb(0%,0%,0%);" transform="translate(0,0) scale(1,-1)" x="0" y="0">12</text>
			</g>
			<g transform=" matrix(1.000000, 0.000000, -0.000000, 1.000000, 739.169304, 408.750000)">
				<text style="font-size: 10px; font-family: Helvetica; fill: rgb(0%,0%,0%);" transform="translate(0,0) scale(1,-1)" x="0" y="0">14</text>
			</g>
			<g transform=" matrix(1.000000, 0.000000, -0.000000, 1.000000, 928.425633, 408.750000)">
				<text style="font-size: 10px; font-family: Helvetica; fill: rgb(0%,0%,0%);" transform="translate(0,0) scale(1,-1)" x="0" y="0">16</text>
			</g>
			<g transform=" matrix(1.000000, 0.000000, -0.000000, 1.000000, 96.851266, 183.750000)">
				<text style="font-size: 10px; font-family: Helvetica; fill: rgb(0%,0%,0%);" transform="translate(0,0) scale(1,-1)" x="0" y="0">16</text>
			</g>
			<g transform=" matrix(1.000000, 0.000000, -0.000000, 1.000000, 293.512658, 183.750000)">
				<text style="font-size: 10px; font-family: Helvetica; fill: rgb(0%,0%,0%);" transform="translate(0,0) scale(1,-1)" x="0" y="0">18</text>
			</g>
			<g transform=" matrix(1.000000, 0.000000, -0.000000, 1.000000, 526.558544, 183.750000)">
				<text style="font-size: 10px; font-family: Helvetica; fill: rgb(0%,0%,0%);" transform="translate(0,0) scale(1,-1)" x="0" y="0">20</text>
			</g>
			<g transform=" matrix(1.000000, 0.000000, -0.000000, 1.000000, 768.077532, 183.750000)">
				<text style="font-size: 10px; font-family: Helvetica; fill: rgb(0%,0%,0%);" transform="translate(0,0) scale(1,-1)" x="0" y="0">22</text>
			</g>
			<g transform=" matrix(1.000000, 0.000000, -0.000000, 1.000000, 127.539557, 701.250000)">
				<text style="font-size: 10px; font-family: Helvetica; fill: rgb(0%,0%,0%);" transform="translate(0,0) scale(1,-1)" x="0" y="0">1</text>
			</g>
			<g transform=" matrix(1.000000, 0.000000, -0.000000, 1.000000, 366.210443, 701.250000)">
				<text style="font-size: 10px; font-family: Helvetica; fill: rgb(0%,0%,0%);" transform="translate(0,0) scale(1,-1)" x="0" y="0">3</text>
			</g>
			<g transform=" matrix(1.000000, 0.000000, -0.000000, 1.000000, 608.797468, 701.250000)">
				<text style="font-size: 10px; font-family: Helvetica; fill: rgb(0%,0%,0%);" transform="translate(0,0) scale(1,-1)" x="0" y="0">5</text>
			</g>
			<g transform=" matrix(1.000000, 0.000000, -0.000000, 1.000000, 847.539557, 701.250000)">
				<text style="font-size: 10px; font-family: Helvetica; fill: rgb(0%,0%,0%);" transform="translate(0,0) scale(1,-1)" x="0" y="0">7</text>
			</g>
			<g transform=" matrix(1.000000, 0.000000, -0.000000, 1.000000, 166.060127, 476.250000)">
				<text style="font-size: 10px; font-family: Helvetica; fill: rgb(0%,0%,0%);" transform="translate(0,0) scale(1,-1)" x="0" y="0">9</text>
			</g>
			<g transform=" matrix(1.000000, 0.000000, -0.000000, 1.000000, 398.037975, 476.250000)">
				<text style="font-size: 10px; font-family: Helvetica; fill: rgb(0%,0%,0%);" transform="translate(0,0) scale(1,-1)" x="0" y="0">11</text>
			</g>
			<g transform=" matrix(1.000000, 0.000000, -0.000000, 1.000000, 624.177215, 476.250000)">
				<text style="font-size: 10px; font-family: Helvetica; fill: rgb(0%,0%,0%);" transform="translate(0,0) scale(1,-1)" x="0" y="0">13</text>
			</g>
			<g transform=" matrix(1.000000, 0.000000, -0.000000, 1.000000, 859.287975, 476.250000)">
				<text style="font-size: 10px; font-family: Helvetica; fill: rgb(0%,0%,0%);" transform="translate(0,0) scale(1,-1)" x="0" y="0">15</text>
			</g>
			<g transform=" matrix(1.000000, 0.000000, -0.000000, 1.000000, 186.281646, 251.250000)">
				<text style="font-size: 10px; font-family: Helvetica; fill: rgb(0%,0%,0%);" transform="translate(0,0) scale(1,-1)" x="0" y="0">17</text>
			</g>
			<g transform=" matrix(1.000000, 0.000000, -0.000000, 1.000000, 407.009494, 251.250000)">
				<text style="font-size: 10px; font-family: Helvetica; fill: rgb(0%,0%,0%);" transform="translate(0,0) scale(1,-1)" x="0" y="0">19</text>
			</g>
			<g transform=" matrix(1.000000, 0.000000, -0.000000, 1.000000, 646.962025, 251.250000)">
				<text style="font-size: 10px; font-family: Helvetica; fill: rgb(0%,0%,0%);" transform="translate(0,0) scale(1,-1)" x="0" y="0">21</text>
			</g>
			<g transform=" matrix(1.000000, 0.000000, -0.000000, 1.000000, 874.311709, 251.250000)">
				<text style="font-size: 10px; font-family: Helvetica; fill: rgb(0%,0%,0%);" transform="translate(0,0) scale(1,-1)" x="0" y="0">23</text>
			</g>
		</g>
	</g>
</svg>
